<?xml version="1.0" encoding="UTF-8" standalone="no"?>
<!DOCTYPE svg PUBLIC "-//W3C//DTD SVG 1.1//EN"
 "http://www.w3.org/Graphics/SVG/1.1/DTD/svg11.dtd">
<!-- Generated by graphviz version 2.40.1 (20161225.0304)
 -->
<!-- Title: dependencies Pages: 1 -->
<svg width="2928pt" height="431pt"
 viewBox="0.00 0.00 2928.00 431.00" xmlns="http://www.w3.org/2000/svg" xmlns:xlink="http://www.w3.org/1999/xlink">
<g id="graph0" class="graph" transform="scale(1 1) rotate(0) translate(4 427)">
<title>dependencies</title>
<polygon fill="#ffffff" stroke="transparent" points="-4,4 -4,-427 2924,-427 2924,4 -4,4"/>
<text text-anchor="start" x="1439.0091" y="-42.4" font-family="sans-serif" font-weight="bold" font-size="14.00" fill="#000000">Legend</text>
<polygon fill="#ffffb3" stroke="transparent" points="1226,-10 1226,-30 1246,-30 1246,-10 1226,-10"/>
<text text-anchor="start" x="1249.629" y="-15.4" font-family="sans-serif" font-size="14.00" fill="#000000"> &#160;Declarations</text>
<polygon fill="#8dd3c7" stroke="transparent" points="1339,-10 1339,-30 1359,-30 1359,-10 1339,-10"/>
<text text-anchor="start" x="1362.7251" y="-15.4" font-family="sans-serif" font-size="14.00" fill="#000000"> &#160;Module</text>
<polygon fill="#80b1d3" stroke="transparent" points="1425,-10 1425,-30 1445,-30 1445,-10 1425,-10"/>
<text text-anchor="start" x="1448.7812" y="-15.4" font-family="sans-serif" font-size="14.00" fill="#000000"> &#160;Bootstrap</text>
<polygon fill="#fdb462" stroke="transparent" points="1522,-10 1522,-30 1542,-30 1542,-10 1522,-10"/>
<text text-anchor="start" x="1545.6732" y="-15.4" font-family="sans-serif" font-size="14.00" fill="#000000"> &#160;Providers</text>
<polygon fill="#fb8072" stroke="transparent" points="1618,-10 1618,-30 1638,-30 1638,-10 1618,-10"/>
<text text-anchor="start" x="1641.7258" y="-15.4" font-family="sans-serif" font-size="14.00" fill="#000000"> &#160;Exports</text>
<g id="clust1" class="cluster">
<title>cluster_AppModule</title>
<polygon fill="none" stroke="#000000" stroke-dasharray="1,5" points="1030,-146 1030,-415 1704,-415 1704,-146 1030,-146"/>
</g>
<g id="clust2" class="cluster">
<title>cluster_AppModule_declarations</title>
<polygon fill="none" stroke="#000000" points="1574,-222 1574,-274 1696,-274 1696,-222 1574,-222"/>
</g>
<g id="clust4" class="cluster">
<title>cluster_AppModule_imports</title>
<polygon fill="none" stroke="#000000" points="1038,-154 1038,-274 1566,-274 1566,-154 1038,-154"/>
</g>
<g id="clust6" class="cluster">
<title>cluster_AppModule_bootstrap</title>
<polygon fill="none" stroke="#000000" points="1305,-355 1305,-407 1429,-407 1429,-355 1305,-355"/>
</g>
<g id="clust20" class="cluster">
<title>cluster_HomeModule</title>
<polygon fill="none" stroke="#000000" stroke-dasharray="1,5" points="2602,-70 2602,-206 2912,-206 2912,-70 2602,-70"/>
</g>
<g id="clust21" class="cluster">
<title>cluster_HomeModule_declarations</title>
<polygon fill="none" stroke="#000000" points="2772,-78 2772,-130 2904,-130 2904,-78 2772,-78"/>
</g>
<g id="clust23" class="cluster">
<title>cluster_HomeModule_imports</title>
<polygon fill="none" stroke="#000000" points="2610,-78 2610,-130 2764,-130 2764,-78 2610,-78"/>
</g>
<g id="clust39" class="cluster">
<title>cluster_ItemsModule</title>
<polygon fill="none" stroke="#000000" stroke-dasharray="1,5" points="8,-146 8,-347 1022,-347 1022,-146 8,-146"/>
</g>
<g id="clust40" class="cluster">
<title>cluster_ItemsModule_declarations</title>
<polygon fill="none" stroke="#000000" points="176,-154 176,-206 1014,-206 1014,-154 176,-154"/>
</g>
<g id="clust47" class="cluster">
<title>cluster_ItemsModule_imports</title>
<polygon fill="none" stroke="#000000" points="16,-154 16,-206 168,-206 168,-154 16,-154"/>
</g>
<g id="clust48" class="cluster">
<title>cluster_ItemsModule_exports</title>
<polygon fill="none" stroke="#000000" points="499,-287 499,-339 779,-339 779,-287 499,-287"/>
</g>
<g id="clust57" class="cluster">
<title>cluster_LoginModule</title>
<polygon fill="none" stroke="#000000" stroke-dasharray="1,5" points="1712,-146 1712,-214 2020,-214 2020,-146 1712,-146"/>
</g>
<g id="clust58" class="cluster">
<title>cluster_LoginModule_declarations</title>
<polygon fill="none" stroke="#000000" points="1882,-154 1882,-206 2012,-206 2012,-154 1882,-154"/>
</g>
<g id="clust60" class="cluster">
<title>cluster_LoginModule_imports</title>
<polygon fill="none" stroke="#000000" points="1720,-154 1720,-206 1874,-206 1874,-154 1720,-154"/>
</g>
<g id="clust70" class="cluster">
<title>cluster_PageNotFoundModule</title>
<polygon fill="none" stroke="#000000" stroke-dasharray="1,5" points="2184,-70 2184,-138 2594,-138 2594,-70 2184,-70"/>
</g>
<g id="clust71" class="cluster">
<title>cluster_PageNotFoundModule_declarations</title>
<polygon fill="none" stroke="#000000" points="2404,-78 2404,-130 2586,-130 2586,-78 2404,-78"/>
</g>
<g id="clust73" class="cluster">
<title>cluster_PageNotFoundModule_imports</title>
<polygon fill="none" stroke="#000000" points="2192,-78 2192,-130 2396,-130 2396,-78 2192,-78"/>
</g>
<g id="clust83" class="cluster">
<title>cluster_SharedModule</title>
<polygon fill="none" stroke="#000000" stroke-dasharray="1,5" points="87,-70 87,-138 2176,-138 2176,-70 87,-70"/>
</g>
<g id="clust84" class="cluster">
<title>cluster_SharedModule_declarations</title>
<polygon fill="none" stroke="#000000" points="1088,-78 1088,-130 2168,-130 2168,-78 1088,-78"/>
</g>
<g id="clust93" class="cluster">
<title>cluster_SharedModule_imports</title>
<polygon fill="none" stroke="#000000" points="974,-78 974,-130 1080,-130 1080,-78 974,-78"/>
</g>
<g id="clust94" class="cluster">
<title>cluster_SharedModule_exports</title>
<polygon fill="none" stroke="#000000" points="95,-78 95,-130 966,-130 966,-78 95,-78"/>
</g>
<!-- AppComponent -->
<g id="node1" class="node">
<title>AppComponent</title>
<polygon fill="#ffffb3" stroke="#000000" points="1687.9399,-266 1582.0601,-266 1582.0601,-230 1687.9399,-230 1687.9399,-266"/>
<text text-anchor="middle" x="1635" y="-243.8" font-family="Times,serif" font-size="14.00" fill="#000000">AppComponent</text>
</g>
<!-- AppModule -->
<g id="node2" class="node">
<title>AppModule</title>
<polygon fill="#8dd3c7" stroke="#000000" points="1408.6571,-331 1405.6571,-335 1384.6571,-335 1381.6571,-331 1325.3429,-331 1325.3429,-295 1408.6571,-295 1408.6571,-331"/>
<text text-anchor="middle" x="1367" y="-308.8" font-family="Times,serif" font-size="14.00" fill="#000000">AppModule</text>
</g>
<!-- AppComponent&#45;&gt;AppModule -->
<g id="edge1" class="edge">
<title>AppComponent&#45;&gt;AppModule</title>
<path fill="none" stroke="#000000" d="M1635,-266.2843C1635,-287.3211 1635,-319 1635,-319 1635,-319 1418.875,-319 1418.875,-319"/>
<polygon fill="#000000" stroke="#000000" points="1418.875,-315.5001 1408.875,-319 1418.875,-322.5001 1418.875,-315.5001"/>
</g>
<!-- AppComponent  -->
<g id="node8" class="node">
<title>AppComponent </title>
<polygon fill="#80b1d3" stroke="#000000" points="1421.439,-399 1312.561,-399 1312.561,-363 1421.439,-363 1421.439,-399"/>
<text text-anchor="middle" x="1367" y="-376.8" font-family="Times,serif" font-size="14.00" fill="#000000">AppComponent </text>
</g>
<!-- AppModule&#45;&gt;AppComponent  -->
<g id="edge7" class="edge">
<title>AppModule&#45;&gt;AppComponent </title>
<path fill="none" stroke="#000000" stroke-dasharray="1,5" d="M1367,-331.2228C1367,-331.2228 1367,-352.7269 1367,-352.7269"/>
<polygon fill="#000000" stroke="#000000" points="1363.5001,-352.7269 1367,-362.7269 1370.5001,-352.727 1363.5001,-352.7269"/>
</g>
<!-- AppRoutingModule -->
<g id="node3" class="node">
<title>AppRoutingModule</title>
<polygon fill="#8dd3c7" stroke="#000000" points="1174.2744,-198 1171.2744,-202 1150.2744,-202 1147.2744,-198 1045.7256,-198 1045.7256,-162 1174.2744,-162 1174.2744,-198"/>
<text text-anchor="middle" x="1110" y="-175.8" font-family="Times,serif" font-size="14.00" fill="#000000">AppRoutingModule</text>
</g>
<!-- AppRoutingModule&#45;&gt;AppModule -->
<g id="edge2" class="edge">
<title>AppRoutingModule&#45;&gt;AppModule</title>
<path fill="none" stroke="#000000" d="M1110,-198.1718C1110,-235.8494 1110,-319 1110,-319 1110,-319 1315.1365,-319 1315.1365,-319"/>
<polygon fill="#000000" stroke="#000000" points="1315.1366,-322.5001 1325.1365,-319 1315.1365,-315.5001 1315.1366,-322.5001"/>
</g>
<!-- CoreModule -->
<g id="node4" class="node">
<title>CoreModule</title>
<polygon fill="#8dd3c7" stroke="#000000" points="1279.2619,-198 1276.2619,-202 1255.2619,-202 1252.2619,-198 1192.7381,-198 1192.7381,-162 1279.2619,-162 1279.2619,-198"/>
<text text-anchor="middle" x="1236" y="-175.8" font-family="Times,serif" font-size="14.00" fill="#000000">CoreModule</text>
</g>
<!-- CoreModule&#45;&gt;AppModule -->
<g id="edge3" class="edge">
<title>CoreModule&#45;&gt;AppModule</title>
<path fill="none" stroke="#000000" d="M1236,-198.196C1236,-233.3126 1236,-307 1236,-307 1236,-307 1315.1906,-307 1315.1906,-307"/>
<polygon fill="#000000" stroke="#000000" points="1315.1906,-310.5001 1325.1906,-307 1315.1906,-303.5001 1315.1906,-310.5001"/>
</g>
<!-- LoginModule -->
<g id="node5" class="node">
<title>LoginModule</title>
<polygon fill="#8dd3c7" stroke="#000000" points="1548.493,-266 1545.493,-270 1524.493,-270 1521.493,-266 1455.507,-266 1455.507,-230 1548.493,-230 1548.493,-266"/>
<text text-anchor="middle" x="1502" y="-243.8" font-family="Times,serif" font-size="14.00" fill="#000000">LoginModule</text>
</g>
<!-- LoginModule&#45;&gt;AppModule -->
<g id="edge4" class="edge">
<title>LoginModule&#45;&gt;AppModule</title>
<path fill="none" stroke="#000000" d="M1455.4638,-260C1429.5729,-260 1402.5197,-260 1402.5197,-260 1402.5197,-260 1402.5197,-284.7604 1402.5197,-284.7604"/>
<polygon fill="#000000" stroke="#000000" points="1399.0197,-284.7604 1402.5197,-294.7604 1406.0197,-284.7604 1399.0197,-284.7604"/>
</g>
<!-- PageNotFoundModule -->
<g id="node6" class="node">
<title>PageNotFoundModule</title>
<polygon fill="#8dd3c7" stroke="#000000" points="1557.5421,-198 1554.5421,-202 1533.5421,-202 1530.5421,-198 1414.4579,-198 1414.4579,-162 1557.5421,-162 1557.5421,-198"/>
<text text-anchor="middle" x="1486" y="-175.8" font-family="Times,serif" font-size="14.00" fill="#000000">PageNotFoundModule</text>
</g>
<!-- PageNotFoundModule&#45;&gt;AppModule -->
<g id="edge5" class="edge">
<title>PageNotFoundModule&#45;&gt;AppModule</title>
<path fill="none" stroke="#000000" d="M1417.8494,-198.196C1417.8494,-233.3126 1417.8494,-307 1417.8494,-307 1417.8494,-307 1416.9637,-307 1416.9637,-307"/>
<polygon fill="#000000" stroke="#000000" points="1418.9922,-303.5001 1408.9921,-307 1418.9921,-310.5001 1418.9922,-303.5001"/>
</g>
<!-- SharedModule -->
<g id="node7" class="node">
<title>SharedModule</title>
<polygon fill="#8dd3c7" stroke="#000000" points="1396.4231,-198 1393.4231,-202 1372.4231,-202 1369.4231,-198 1297.5769,-198 1297.5769,-162 1396.4231,-162 1396.4231,-198"/>
<text text-anchor="middle" x="1347" y="-175.8" font-family="Times,serif" font-size="14.00" fill="#000000">SharedModule</text>
</g>
<!-- SharedModule&#45;&gt;AppModule -->
<g id="edge6" class="edge">
<title>SharedModule&#45;&gt;AppModule</title>
<path fill="none" stroke="#000000" d="M1348.8516,-198.2142C1348.8516,-198.2142 1348.8516,-284.579 1348.8516,-284.579"/>
<polygon fill="#000000" stroke="#000000" points="1345.3517,-284.5789 1348.8516,-294.579 1352.3517,-284.579 1345.3517,-284.5789"/>
</g>
<!-- SharedModule&#45;&gt;LoginModule -->
<g id="edge22" class="edge">
<title>SharedModule&#45;&gt;LoginModule</title>
<path fill="none" stroke="#000000" d="M1372.5313,-198.2921C1372.5313,-220.2057 1372.5313,-254 1372.5313,-254 1372.5313,-254 1445.2588,-254 1445.2588,-254"/>
<polygon fill="#000000" stroke="#000000" points="1445.2589,-257.5001 1455.2588,-254 1445.2588,-250.5001 1445.2589,-257.5001"/>
</g>
<!-- ItemsModule -->
<g id="node18" class="node">
<title>ItemsModule</title>
<polygon fill="#8dd3c7" stroke="#000000" points="675.1515,-266 672.1515,-270 651.1515,-270 648.1515,-266 584.8485,-266 584.8485,-230 675.1515,-230 675.1515,-266"/>
<text text-anchor="middle" x="630" y="-243.8" font-family="Times,serif" font-size="14.00" fill="#000000">ItemsModule</text>
</g>
<!-- SharedModule&#45;&gt;ItemsModule -->
<g id="edge17" class="edge">
<title>SharedModule&#45;&gt;ItemsModule</title>
<path fill="none" stroke="#000000" d="M1305.1597,-198.2228C1305.1597,-218.3652 1305.1597,-248 1305.1597,-248 1305.1597,-248 685.3475,-248 685.3475,-248"/>
<polygon fill="#000000" stroke="#000000" points="685.3475,-244.5001 675.3475,-248 685.3475,-251.5001 685.3475,-244.5001"/>
</g>
<!-- FilterByStatePipe  -->
<g id="node35" class="node">
<title>FilterByStatePipe </title>
<polygon fill="#fb8072" stroke="#000000" points="831.547,-122 712.453,-122 712.453,-86 831.547,-86 831.547,-122"/>
<text text-anchor="middle" x="772" y="-99.8" font-family="Times,serif" font-size="14.00" fill="#000000">FilterByStatePipe </text>
</g>
<!-- SharedModule&#45;&gt;FilterByStatePipe  -->
<g id="edge34" class="edge">
<title>SharedModule&#45;&gt;FilterByStatePipe </title>
<path fill="none" stroke="#000000" stroke-dasharray="5,2" d="M1328.5458,-161.8533C1328.5458,-148.2605 1328.5458,-132 1328.5458,-132 1328.5458,-132 805.9841,-132 805.9841,-132 805.9841,-132 805.9841,-131.0207 805.9841,-131.0207"/>
<polygon fill="#000000" stroke="#000000" points="809.4842,-132.2069 805.9841,-122.207 802.4842,-132.207 809.4842,-132.2069"/>
</g>
<!-- FormComponent  -->
<g id="node36" class="node">
<title>FormComponent </title>
<polygon fill="#fb8072" stroke="#000000" points="694.6663,-122 579.3337,-122 579.3337,-86 694.6663,-86 694.6663,-122"/>
<text text-anchor="middle" x="637" y="-99.8" font-family="Times,serif" font-size="14.00" fill="#000000">FormComponent </text>
</g>
<!-- SharedModule&#45;&gt;FormComponent  -->
<g id="edge35" class="edge">
<title>SharedModule&#45;&gt;FormComponent </title>
<path fill="none" stroke="#000000" stroke-dasharray="5,2" d="M1322.3945,-161.8196C1322.3945,-148.9618 1322.3945,-134 1322.3945,-134 1322.3945,-134 664.1029,-134 664.1029,-134 664.1029,-134 664.1029,-132.1432 664.1029,-132.1432"/>
<polygon fill="#000000" stroke="#000000" points="667.603,-132.1432 664.1029,-122.1432 660.603,-132.1432 667.603,-132.1432"/>
</g>
<!-- FormLoginComponent  -->
<g id="node37" class="node">
<title>FormLoginComponent </title>
<polygon fill="#fb8072" stroke="#000000" points="561.1099,-122 412.8901,-122 412.8901,-86 561.1099,-86 561.1099,-122"/>
<text text-anchor="middle" x="487" y="-99.8" font-family="Times,serif" font-size="14.00" fill="#000000">FormLoginComponent </text>
</g>
<!-- SharedModule&#45;&gt;FormLoginComponent  -->
<g id="edge36" class="edge">
<title>SharedModule&#45;&gt;FormLoginComponent </title>
<path fill="none" stroke="#000000" stroke-dasharray="5,2" d="M1316.2431,-161.5146C1316.2431,-149.8601 1316.2431,-137 1316.2431,-137 1316.2431,-137 535.7926,-137 535.7926,-137 535.7926,-137 535.7926,-132.0449 535.7926,-132.0449"/>
<polygon fill="#000000" stroke="#000000" points="539.2927,-132.0448 535.7926,-122.0449 532.2927,-132.0449 539.2927,-132.0448"/>
</g>
<!-- FormReactiveComponent  -->
<g id="node38" class="node">
<title>FormReactiveComponent </title>
<polygon fill="#fb8072" stroke="#000000" points="395.1425,-122 230.8575,-122 230.8575,-86 395.1425,-86 395.1425,-122"/>
<text text-anchor="middle" x="313" y="-99.8" font-family="Times,serif" font-size="14.00" fill="#000000">FormReactiveComponent </text>
</g>
<!-- SharedModule&#45;&gt;FormReactiveComponent  -->
<g id="edge37" class="edge">
<title>SharedModule&#45;&gt;FormReactiveComponent </title>
<path fill="none" stroke="#000000" stroke-dasharray="5,2" d="M1310.0917,-161.8975C1310.0917,-150.9141 1310.0917,-139 1310.0917,-139 1310.0917,-139 366.4318,-139 366.4318,-139 366.4318,-139 366.4318,-132.32 366.4318,-132.32"/>
<polygon fill="#000000" stroke="#000000" points="369.9319,-132.32 366.4318,-122.32 362.9319,-132.3201 369.9319,-132.32"/>
</g>
<!-- ItemComponent  -->
<g id="node39" class="node">
<title>ItemComponent </title>
<polygon fill="#fb8072" stroke="#000000" points="213.4899,-122 102.5101,-122 102.5101,-86 213.4899,-86 213.4899,-122"/>
<text text-anchor="middle" x="158" y="-99.8" font-family="Times,serif" font-size="14.00" fill="#000000">ItemComponent </text>
</g>
<!-- SharedModule&#45;&gt;ItemComponent  -->
<g id="edge38" class="edge">
<title>SharedModule&#45;&gt;ItemComponent </title>
<path fill="none" stroke="#000000" stroke-dasharray="5,2" d="M1303.9403,-161.8701C1303.9403,-151.6855 1303.9403,-141 1303.9403,-141 1303.9403,-141 198.4911,-141 198.4911,-141 198.4911,-141 198.4911,-132.0664 198.4911,-132.0664"/>
<polygon fill="#000000" stroke="#000000" points="201.9911,-132.0664 198.4911,-122.0664 194.9911,-132.0665 201.9911,-132.0664"/>
</g>
<!-- NavComponent  -->
<g id="node40" class="node">
<title>NavComponent </title>
<polygon fill="#fb8072" stroke="#000000" points="958.1537,-122 849.8463,-122 849.8463,-86 958.1537,-86 958.1537,-122"/>
<text text-anchor="middle" x="904" y="-99.8" font-family="Times,serif" font-size="14.00" fill="#000000">NavComponent </text>
</g>
<!-- SharedModule&#45;&gt;NavComponent  -->
<g id="edge39" class="edge">
<title>SharedModule&#45;&gt;NavComponent </title>
<path fill="none" stroke="#000000" stroke-dasharray="5,2" d="M1334.6972,-161.9489C1334.6972,-147.627 1334.6972,-130 1334.6972,-130 1334.6972,-130 929.8719,-130 929.8719,-130 929.8719,-130 929.8719,-129.2058 929.8719,-129.2058"/>
<polygon fill="#000000" stroke="#000000" points="933.372,-132.0578 929.8719,-122.0579 926.372,-132.0579 933.372,-132.0578"/>
</g>
<!-- HomeComponent -->
<g id="node9" class="node">
<title>HomeComponent</title>
<polygon fill="#ffffb3" stroke="#000000" points="2895.5451,-122 2780.4549,-122 2780.4549,-86 2895.5451,-86 2895.5451,-122"/>
<text text-anchor="middle" x="2838" y="-99.8" font-family="Times,serif" font-size="14.00" fill="#000000">HomeComponent</text>
</g>
<!-- HomeModule -->
<g id="node10" class="node">
<title>HomeModule</title>
<polygon fill="#8dd3c7" stroke="#000000" points="2808.7619,-198 2805.7619,-202 2784.7619,-202 2781.7619,-198 2715.2381,-198 2715.2381,-162 2808.7619,-162 2808.7619,-198"/>
<text text-anchor="middle" x="2762" y="-175.8" font-family="Times,serif" font-size="14.00" fill="#000000">HomeModule</text>
</g>
<!-- HomeComponent&#45;&gt;HomeModule -->
<g id="edge8" class="edge">
<title>HomeComponent&#45;&gt;HomeModule</title>
<path fill="none" stroke="#000000" d="M2794.5544,-122.0109C2794.5544,-122.0109 2794.5544,-151.855 2794.5544,-151.855"/>
<polygon fill="#000000" stroke="#000000" points="2791.0544,-151.8549 2794.5544,-161.855 2798.0544,-151.855 2791.0544,-151.8549"/>
</g>
<!-- HomeRoutingModule -->
<g id="node11" class="node">
<title>HomeRoutingModule</title>
<polygon fill="#8dd3c7" stroke="#000000" points="2756.3795,-122 2753.3795,-126 2732.3795,-126 2729.3795,-122 2617.6205,-122 2617.6205,-86 2756.3795,-86 2756.3795,-122"/>
<text text-anchor="middle" x="2687" y="-99.8" font-family="Times,serif" font-size="14.00" fill="#000000">HomeRoutingModule</text>
</g>
<!-- HomeRoutingModule&#45;&gt;HomeModule -->
<g id="edge9" class="edge">
<title>HomeRoutingModule&#45;&gt;HomeModule</title>
<path fill="none" stroke="#000000" d="M2735.7795,-122.0109C2735.7795,-122.0109 2735.7795,-151.855 2735.7795,-151.855"/>
<polygon fill="#000000" stroke="#000000" points="2732.2795,-151.8549 2735.7795,-161.855 2739.2795,-151.855 2732.2795,-151.8549"/>
</g>
<!-- AbstractComponent -->
<g id="node12" class="node">
<title>AbstractComponent</title>
<polygon fill="#ffffb3" stroke="#000000" points="762.2548,-198 633.7452,-198 633.7452,-162 762.2548,-162 762.2548,-198"/>
<text text-anchor="middle" x="698" y="-175.8" font-family="Times,serif" font-size="14.00" fill="#000000">AbstractComponent</text>
</g>
<!-- AbstractComponent&#45;&gt;ItemsModule -->
<g id="edge10" class="edge">
<title>AbstractComponent&#45;&gt;ItemsModule</title>
<path fill="none" stroke="#000000" d="M654.4741,-198.2228C654.4741,-198.2228 654.4741,-219.7269 654.4741,-219.7269"/>
<polygon fill="#000000" stroke="#000000" points="650.9741,-219.7269 654.4741,-229.7269 657.9741,-219.727 650.9741,-219.7269"/>
</g>
<!-- AddComponent -->
<g id="node13" class="node">
<title>AddComponent</title>
<polygon fill="#ffffb3" stroke="#000000" points="615.9399,-198 510.0601,-198 510.0601,-162 615.9399,-162 615.9399,-198"/>
<text text-anchor="middle" x="563" y="-175.8" font-family="Times,serif" font-size="14.00" fill="#000000">AddComponent</text>
</g>
<!-- AddComponent&#45;&gt;ItemsModule -->
<g id="edge11" class="edge">
<title>AddComponent&#45;&gt;ItemsModule</title>
<path fill="none" stroke="#000000" d="M600.1971,-198.2228C600.1971,-198.2228 600.1971,-219.7269 600.1971,-219.7269"/>
<polygon fill="#000000" stroke="#000000" points="596.6971,-219.7269 600.1971,-229.7269 603.6971,-219.727 596.6971,-219.7269"/>
</g>
<!-- AddReactiveComponent -->
<g id="node14" class="node">
<title>AddReactiveComponent</title>
<polygon fill="#ffffb3" stroke="#000000" points="492.4158,-198 337.5842,-198 337.5842,-162 492.4158,-162 492.4158,-198"/>
<text text-anchor="middle" x="415" y="-175.8" font-family="Times,serif" font-size="14.00" fill="#000000">AddReactiveComponent</text>
</g>
<!-- AddReactiveComponent&#45;&gt;ItemsModule -->
<g id="edge12" class="edge">
<title>AddReactiveComponent&#45;&gt;ItemsModule</title>
<path fill="none" stroke="#000000" d="M415,-198.0225C415,-215.3734 415,-239 415,-239 415,-239 574.6667,-239 574.6667,-239"/>
<polygon fill="#000000" stroke="#000000" points="574.6668,-242.5001 584.6667,-239 574.6667,-235.5001 574.6668,-242.5001"/>
</g>
<!-- DeliveredComponent -->
<g id="node15" class="node">
<title>DeliveredComponent</title>
<polygon fill="#ffffb3" stroke="#000000" points="320.0254,-198 183.9746,-198 183.9746,-162 320.0254,-162 320.0254,-198"/>
<text text-anchor="middle" x="252" y="-175.8" font-family="Times,serif" font-size="14.00" fill="#000000">DeliveredComponent</text>
</g>
<!-- DeliveredComponent&#45;&gt;ItemsModule -->
<g id="edge13" class="edge">
<title>DeliveredComponent&#45;&gt;ItemsModule</title>
<path fill="none" stroke="#000000" d="M252,-198.2228C252,-218.3652 252,-248 252,-248 252,-248 574.7798,-248 574.7798,-248"/>
<polygon fill="#000000" stroke="#000000" points="574.7799,-251.5001 584.7798,-248 574.7798,-244.5001 574.7799,-251.5001"/>
</g>
<!-- EditComponent -->
<g id="node16" class="node">
<title>EditComponent</title>
<polygon fill="#ffffb3" stroke="#000000" points="1006.1667,-198 901.8333,-198 901.8333,-162 1006.1667,-162 1006.1667,-198"/>
<text text-anchor="middle" x="954" y="-175.8" font-family="Times,serif" font-size="14.00" fill="#000000">EditComponent</text>
</g>
<!-- EditComponent&#45;&gt;ItemsModule -->
<g id="edge14" class="edge">
<title>EditComponent&#45;&gt;ItemsModule</title>
<path fill="none" stroke="#000000" d="M954,-198.2667C954,-216.5552 954,-242 954,-242 954,-242 685.392,-242 685.392,-242"/>
<polygon fill="#000000" stroke="#000000" points="685.392,-238.5001 675.392,-242 685.3919,-245.5001 685.392,-238.5001"/>
</g>
<!-- ListComponent -->
<g id="node17" class="node">
<title>ListComponent</title>
<polygon fill="#ffffb3" stroke="#000000" points="883.6109,-198 780.3891,-198 780.3891,-162 883.6109,-162 883.6109,-198"/>
<text text-anchor="middle" x="832" y="-175.8" font-family="Times,serif" font-size="14.00" fill="#000000">ListComponent</text>
</g>
<!-- ListComponent&#45;&gt;ItemsModule -->
<g id="edge15" class="edge">
<title>ListComponent&#45;&gt;ItemsModule</title>
<path fill="none" stroke="#000000" d="M832,-198.027C832,-214.3976 832,-236 832,-236 832,-236 685.3327,-236 685.3327,-236"/>
<polygon fill="#000000" stroke="#000000" points="685.3328,-232.5001 675.3327,-236 685.3327,-239.5001 685.3328,-232.5001"/>
</g>
<!-- DeliveredComponent  -->
<g id="node20" class="node">
<title>DeliveredComponent </title>
<polygon fill="#fb8072" stroke="#000000" points="771.0246,-331 630.9754,-331 630.9754,-295 771.0246,-295 771.0246,-331"/>
<text text-anchor="middle" x="701" y="-308.8" font-family="Times,serif" font-size="14.00" fill="#000000">DeliveredComponent </text>
</g>
<!-- ItemsModule&#45;&gt;DeliveredComponent  -->
<g id="edge18" class="edge">
<title>ItemsModule&#45;&gt;DeliveredComponent </title>
<path fill="none" stroke="#000000" stroke-dasharray="5,2" d="M653.1566,-266.1061C653.1566,-266.1061 653.1566,-284.991 653.1566,-284.991"/>
<polygon fill="#000000" stroke="#000000" points="649.6566,-284.9909 653.1566,-294.991 656.6566,-284.991 649.6566,-284.9909"/>
</g>
<!-- ListComponent  -->
<g id="node21" class="node">
<title>ListComponent </title>
<polygon fill="#fb8072" stroke="#000000" points="613.1115,-331 506.8885,-331 506.8885,-295 613.1115,-295 613.1115,-331"/>
<text text-anchor="middle" x="560" y="-308.8" font-family="Times,serif" font-size="14.00" fill="#000000">ListComponent </text>
</g>
<!-- ItemsModule&#45;&gt;ListComponent  -->
<g id="edge19" class="edge">
<title>ItemsModule&#45;&gt;ListComponent </title>
<path fill="none" stroke="#000000" stroke-dasharray="5,2" d="M598.99,-266.1061C598.99,-266.1061 598.99,-284.991 598.99,-284.991"/>
<polygon fill="#000000" stroke="#000000" points="595.4901,-284.9909 598.99,-294.991 602.4901,-284.991 595.4901,-284.9909"/>
</g>
<!-- ItemsRoutingModule -->
<g id="node19" class="node">
<title>ItemsRoutingModule</title>
<polygon fill="#8dd3c7" stroke="#000000" points="159.7688,-198 156.7688,-202 135.7688,-202 132.7688,-198 24.2312,-198 24.2312,-162 159.7688,-162 159.7688,-198"/>
<text text-anchor="middle" x="92" y="-175.8" font-family="Times,serif" font-size="14.00" fill="#000000">ItemsRoutingModule</text>
</g>
<!-- ItemsRoutingModule&#45;&gt;ItemsModule -->
<g id="edge16" class="edge">
<title>ItemsRoutingModule&#45;&gt;ItemsModule</title>
<path fill="none" stroke="#000000" d="M92,-198.2479C92,-221.0179 92,-257 92,-257 92,-257 574.5941,-257 574.5941,-257"/>
<polygon fill="#000000" stroke="#000000" points="574.5941,-260.5001 584.5941,-257 574.5941,-253.5001 574.5941,-260.5001"/>
</g>
<!-- LoginComponent -->
<g id="node22" class="node">
<title>LoginComponent</title>
<polygon fill="#ffffb3" stroke="#000000" points="2004.2758,-198 1889.7242,-198 1889.7242,-162 2004.2758,-162 2004.2758,-198"/>
<text text-anchor="middle" x="1947" y="-175.8" font-family="Times,serif" font-size="14.00" fill="#000000">LoginComponent</text>
</g>
<!-- LoginComponent&#45;&gt;LoginModule -->
<g id="edge20" class="edge">
<title>LoginComponent&#45;&gt;LoginModule</title>
<path fill="none" stroke="#000000" d="M1947,-198.1944C1947,-206.2782 1947,-214 1947,-214 1947,-214 1502,-214 1502,-214 1502,-214 1502,-219.8056 1502,-219.8056"/>
<polygon fill="#000000" stroke="#000000" points="1498.5001,-219.8055 1502,-229.8056 1505.5001,-219.8056 1498.5001,-219.8055"/>
</g>
<!-- LoginRoutingModule -->
<g id="node23" class="node">
<title>LoginRoutingModule</title>
<polygon fill="#8dd3c7" stroke="#000000" points="1866.1108,-198 1863.1108,-202 1842.1108,-202 1839.1108,-198 1727.8892,-198 1727.8892,-162 1866.1108,-162 1866.1108,-198"/>
<text text-anchor="middle" x="1797" y="-175.8" font-family="Times,serif" font-size="14.00" fill="#000000">LoginRoutingModule</text>
</g>
<!-- LoginRoutingModule&#45;&gt;LoginModule -->
<g id="edge21" class="edge">
<title>LoginRoutingModule&#45;&gt;LoginModule</title>
<path fill="none" stroke="#000000" d="M1727.732,-180C1661.6935,-180 1572.2445,-180 1572.2445,-180 1572.2445,-180 1572.2445,-248 1572.2445,-248 1572.2445,-248 1558.8541,-248 1558.8541,-248"/>
<polygon fill="#000000" stroke="#000000" points="1558.8541,-244.5001 1548.8541,-248 1558.8541,-251.5001 1558.8541,-244.5001"/>
</g>
<!-- PageNotFoundComponent -->
<g id="node24" class="node">
<title>PageNotFoundComponent</title>
<polygon fill="#ffffb3" stroke="#000000" points="2577.8243,-122 2412.1757,-122 2412.1757,-86 2577.8243,-86 2577.8243,-122"/>
<text text-anchor="middle" x="2495" y="-99.8" font-family="Times,serif" font-size="14.00" fill="#000000">PageNotFoundComponent</text>
</g>
<!-- PageNotFoundComponent&#45;&gt;PageNotFoundModule -->
<g id="edge23" class="edge">
<title>PageNotFoundComponent&#45;&gt;PageNotFoundModule</title>
<path fill="none" stroke="#000000" d="M2495,-122.027C2495,-138.3976 2495,-160 2495,-160 2495,-160 1520.9166,-160 1520.9166,-160 1520.9166,-160 1520.9166,-160.1846 1520.9166,-160.1846"/>
<polygon fill="#000000" stroke="#000000" points="1517.4172,-151.8455 1520.9166,-161.8457 1524.4172,-151.8459 1517.4172,-151.8455"/>
</g>
<!-- PageNotFoundRoutingModule -->
<g id="node25" class="node">
<title>PageNotFoundRoutingModule</title>
<polygon fill="#8dd3c7" stroke="#000000" points="2388.1595,-122 2385.1595,-126 2364.1595,-126 2361.1595,-122 2199.8405,-122 2199.8405,-86 2388.1595,-86 2388.1595,-122"/>
<text text-anchor="middle" x="2294" y="-99.8" font-family="Times,serif" font-size="14.00" fill="#000000">PageNotFoundRoutingModule</text>
</g>
<!-- PageNotFoundRoutingModule&#45;&gt;PageNotFoundModule -->
<g id="edge24" class="edge">
<title>PageNotFoundRoutingModule&#45;&gt;PageNotFoundModule</title>
<path fill="none" stroke="#000000" d="M2294,-122.2819C2294,-137.9478 2294,-158 2294,-158 2294,-158 1493,-158 1493,-158 1493,-158 1493,-158.3832 1493,-158.3832"/>
<polygon fill="#000000" stroke="#000000" points="1489.5003,-151.832 1493,-161.8321 1496.5003,-151.8322 1489.5003,-151.832"/>
</g>
<!-- CapitalizePipe -->
<g id="node26" class="node">
<title>CapitalizePipe</title>
<polygon fill="#ffffb3" stroke="#000000" points="1798.6458,-122 1701.3542,-122 1701.3542,-86 1798.6458,-86 1798.6458,-122"/>
<text text-anchor="middle" x="1750" y="-99.8" font-family="Times,serif" font-size="14.00" fill="#000000">CapitalizePipe</text>
</g>
<!-- CapitalizePipe&#45;&gt;SharedModule -->
<g id="edge25" class="edge">
<title>CapitalizePipe&#45;&gt;SharedModule</title>
<path fill="none" stroke="#000000" d="M1714.561,-122.1505C1714.561,-134.2708 1714.561,-148 1714.561,-148 1714.561,-148 1371.6056,-148 1371.6056,-148 1371.6056,-148 1371.6056,-151.7566 1371.6056,-151.7566"/>
<polygon fill="#000000" stroke="#000000" points="1368.1056,-151.7566 1371.6056,-161.7566 1375.1056,-151.7566 1368.1056,-151.7566"/>
</g>
<!-- FilterByStatePipe -->
<g id="node27" class="node">
<title>FilterByStatePipe</title>
<polygon fill="#ffffb3" stroke="#000000" points="1682.5479,-122 1567.4521,-122 1567.4521,-86 1682.5479,-86 1682.5479,-122"/>
<text text-anchor="middle" x="1625" y="-99.8" font-family="Times,serif" font-size="14.00" fill="#000000">FilterByStatePipe</text>
</g>
<!-- FilterByStatePipe&#45;&gt;SharedModule -->
<g id="edge26" class="edge">
<title>FilterByStatePipe&#45;&gt;SharedModule</title>
<path fill="none" stroke="#000000" d="M1577.2625,-122.0555C1577.2625,-133.439 1577.2625,-146 1577.2625,-146 1577.2625,-146 1365.4542,-146 1365.4542,-146 1365.4542,-146 1365.4542,-151.8056 1365.4542,-151.8056"/>
<polygon fill="#000000" stroke="#000000" points="1361.9543,-151.8055 1365.4542,-161.8056 1368.9543,-151.8056 1361.9543,-151.8055"/>
</g>
<!-- FormComponent -->
<g id="node28" class="node">
<title>FormComponent</title>
<polygon fill="#ffffb3" stroke="#000000" points="1548.6667,-122 1437.3333,-122 1437.3333,-86 1548.6667,-86 1548.6667,-122"/>
<text text-anchor="middle" x="1493" y="-99.8" font-family="Times,serif" font-size="14.00" fill="#000000">FormComponent</text>
</g>
<!-- FormComponent&#45;&gt;SharedModule -->
<g id="edge27" class="edge">
<title>FormComponent&#45;&gt;SharedModule</title>
<path fill="none" stroke="#000000" d="M1465.0835,-122.1274C1465.0835,-132.7109 1465.0835,-144 1465.0835,-144 1465.0835,-144 1359.3028,-144 1359.3028,-144 1359.3028,-144 1359.3028,-151.5782 1359.3028,-151.5782"/>
<polygon fill="#000000" stroke="#000000" points="1355.8029,-151.5781 1359.3028,-161.5782 1362.8029,-151.5782 1355.8029,-151.5781"/>
</g>
<!-- FormLoginComponent -->
<g id="node29" class="node">
<title>FormLoginComponent</title>
<polygon fill="#ffffb3" stroke="#000000" points="1419.6094,-122 1274.3906,-122 1274.3906,-86 1419.6094,-86 1419.6094,-122"/>
<text text-anchor="middle" x="1347" y="-99.8" font-family="Times,serif" font-size="14.00" fill="#000000">FormLoginComponent</text>
</g>
<!-- FormLoginComponent&#45;&gt;SharedModule -->
<g id="edge28" class="edge">
<title>FormLoginComponent&#45;&gt;SharedModule</title>
<path fill="none" stroke="#000000" d="M1353.1514,-122.0109C1353.1514,-122.0109 1353.1514,-151.855 1353.1514,-151.855"/>
<polygon fill="#000000" stroke="#000000" points="1349.6515,-151.8549 1353.1514,-161.855 1356.6515,-151.855 1349.6515,-151.8549"/>
</g>
<!-- FormReactiveComponent -->
<g id="node30" class="node">
<title>FormReactiveComponent</title>
<polygon fill="#ffffb3" stroke="#000000" points="1256.1428,-122 1095.8572,-122 1095.8572,-86 1256.1428,-86 1256.1428,-122"/>
<text text-anchor="middle" x="1176" y="-99.8" font-family="Times,serif" font-size="14.00" fill="#000000">FormReactiveComponent</text>
</g>
<!-- FormReactiveComponent&#45;&gt;SharedModule -->
<g id="edge29" class="edge">
<title>FormReactiveComponent&#45;&gt;SharedModule</title>
<path fill="none" stroke="#000000" d="M1224.4702,-122.08C1224.4702,-123.8464 1224.4702,-125 1224.4702,-125 1224.4702,-125 1347,-125 1347,-125 1347,-125 1347,-151.9909 1347,-151.9909"/>
<polygon fill="#000000" stroke="#000000" points="1343.5001,-151.9909 1347,-161.9909 1350.5001,-151.991 1343.5001,-151.9909"/>
</g>
<!-- ItemComponent -->
<g id="node31" class="node">
<title>ItemComponent</title>
<polygon fill="#ffffb3" stroke="#000000" points="2160.4888,-122 2053.5112,-122 2053.5112,-86 2160.4888,-86 2160.4888,-122"/>
<text text-anchor="middle" x="2107" y="-99.8" font-family="Times,serif" font-size="14.00" fill="#000000">ItemComponent</text>
</g>
<!-- ItemComponent&#45;&gt;SharedModule -->
<g id="edge30" class="edge">
<title>ItemComponent&#45;&gt;SharedModule</title>
<path fill="none" stroke="#000000" d="M2107,-122.1243C2107,-136.7832 2107,-155 2107,-155 2107,-155 1390.0597,-155 1390.0597,-155 1390.0597,-155 1390.0597,-155.6831 1390.0597,-155.6831"/>
<polygon fill="#000000" stroke="#000000" points="1386.5599,-151.8313 1390.0597,-161.8314 1393.5599,-151.8314 1386.5599,-151.8313"/>
</g>
<!-- NavComponent -->
<g id="node32" class="node">
<title>NavComponent</title>
<polygon fill="#ffffb3" stroke="#000000" points="2035.1542,-122 1930.8458,-122 1930.8458,-86 2035.1542,-86 2035.1542,-122"/>
<text text-anchor="middle" x="1983" y="-99.8" font-family="Times,serif" font-size="14.00" fill="#000000">NavComponent</text>
</g>
<!-- NavComponent&#45;&gt;SharedModule -->
<g id="edge31" class="edge">
<title>NavComponent&#45;&gt;SharedModule</title>
<path fill="none" stroke="#000000" d="M1967.5305,-122.2458C1967.5305,-136.1772 1967.5305,-153 1967.5305,-153 1967.5305,-153 1383.9083,-153 1383.9083,-153 1383.9083,-153 1383.9083,-153.8841 1383.9083,-153.8841"/>
<polygon fill="#000000" stroke="#000000" points="1380.4085,-151.8408 1383.9083,-161.8408 1387.4085,-151.8409 1380.4085,-151.8408"/>
</g>
<!-- StateDirective -->
<g id="node33" class="node">
<title>StateDirective</title>
<polygon fill="#ffffb3" stroke="#000000" points="1913.0758,-122 1816.9242,-122 1816.9242,-86 1913.0758,-86 1913.0758,-122"/>
<text text-anchor="middle" x="1865" y="-99.8" font-family="Times,serif" font-size="14.00" fill="#000000">StateDirective</text>
</g>
<!-- StateDirective&#45;&gt;SharedModule -->
<g id="edge32" class="edge">
<title>StateDirective&#45;&gt;SharedModule</title>
<path fill="none" stroke="#000000" d="M1841.5088,-122.037C1841.5088,-135.2913 1841.5088,-151 1841.5088,-151 1841.5088,-151 1377.7569,-151 1377.7569,-151 1377.7569,-151 1377.7569,-152.0799 1377.7569,-152.0799"/>
<polygon fill="#000000" stroke="#000000" points="1374.257,-151.7985 1377.7569,-161.7985 1381.257,-151.7986 1374.257,-151.7985"/>
</g>
<!-- IconsModule -->
<g id="node34" class="node">
<title>IconsModule</title>
<polygon fill="#8dd3c7" stroke="#000000" points="1071.8697,-122 1068.8697,-126 1047.8697,-126 1044.8697,-122 982.1303,-122 982.1303,-86 1071.8697,-86 1071.8697,-122"/>
<text text-anchor="middle" x="1027" y="-99.8" font-family="Times,serif" font-size="14.00" fill="#000000">IconsModule</text>
</g>
<!-- IconsModule&#45;&gt;SharedModule -->
<g id="edge33" class="edge">
<title>IconsModule&#45;&gt;SharedModule</title>
<path fill="none" stroke="#000000" d="M1058.7739,-122.1223C1058.7739,-124.9729 1058.7739,-127 1058.7739,-127 1058.7739,-127 1340.8486,-127 1340.8486,-127 1340.8486,-127 1340.8486,-151.7604 1340.8486,-151.7604"/>
<polygon fill="#000000" stroke="#000000" points="1337.3487,-151.7604 1340.8486,-161.7604 1344.3487,-151.7604 1337.3487,-151.7604"/>
</g>
</g>
</svg>
