<?xml version="1.0" encoding="UTF-8" standalone="no"?>
<!DOCTYPE svg PUBLIC "-//W3C//DTD SVG 1.1//EN"
 "http://www.w3.org/Graphics/SVG/1.1/DTD/svg11.dtd">
<!-- Generated by graphviz version 2.40.1 (20161225.0304)
 -->
<!-- Title: dependencies Pages: 1 -->
<svg width="1158pt" height="290pt"
 viewBox="0.00 0.00 1158.00 290.00" xmlns="http://www.w3.org/2000/svg" xmlns:xlink="http://www.w3.org/1999/xlink">
<g id="graph0" class="graph" transform="scale(1 1) rotate(0) translate(4 286)">
<title>dependencies</title>
<polygon fill="#ffffff" stroke="transparent" points="-4,4 -4,-286 1154,-286 1154,4 -4,4"/>
<text text-anchor="start" x="554.0091" y="-42.4" font-family="sans-serif" font-weight="bold" font-size="14.00" fill="#000000">Legend</text>
<polygon fill="#ffffb3" stroke="transparent" points="341,-10 341,-30 361,-30 361,-10 341,-10"/>
<text text-anchor="start" x="364.629" y="-15.4" font-family="sans-serif" font-size="14.00" fill="#000000"> &#160;Declarations</text>
<polygon fill="#8dd3c7" stroke="transparent" points="454,-10 454,-30 474,-30 474,-10 454,-10"/>
<text text-anchor="start" x="477.7251" y="-15.4" font-family="sans-serif" font-size="14.00" fill="#000000"> &#160;Module</text>
<polygon fill="#80b1d3" stroke="transparent" points="540,-10 540,-30 560,-30 560,-10 540,-10"/>
<text text-anchor="start" x="563.7812" y="-15.4" font-family="sans-serif" font-size="14.00" fill="#000000"> &#160;Bootstrap</text>
<polygon fill="#fdb462" stroke="transparent" points="637,-10 637,-30 657,-30 657,-10 637,-10"/>
<text text-anchor="start" x="660.6732" y="-15.4" font-family="sans-serif" font-size="14.00" fill="#000000"> &#160;Providers</text>
<polygon fill="#fb8072" stroke="transparent" points="733,-10 733,-30 753,-30 753,-10 733,-10"/>
<text text-anchor="start" x="756.7258" y="-15.4" font-family="sans-serif" font-size="14.00" fill="#000000"> &#160;Exports</text>
<g id="clust1" class="cluster">
<title>cluster_AppModule</title>
<polygon fill="none" stroke="#000000" stroke-dasharray="1,5" points="8,-70 8,-274 866,-274 866,-70 8,-70"/>
</g>
<g id="clust2" class="cluster">
<title>cluster_AppModule_declarations</title>
<polygon fill="none" stroke="#000000" points="16,-78 16,-130 138,-130 138,-78 16,-78"/>
</g>
<g id="clust4" class="cluster">
<title>cluster_AppModule_imports</title>
<polygon fill="none" stroke="#000000" points="146,-78 146,-130 858,-130 858,-78 146,-78"/>
</g>
<g id="clust6" class="cluster">
<title>cluster_AppModule_bootstrap</title>
<polygon fill="none" stroke="#000000" points="410,-214 410,-266 534,-266 534,-214 410,-214"/>
</g>
<g id="clust38" class="cluster">
<title>cluster_SharedModule</title>
<polygon fill="none" stroke="#000000" stroke-dasharray="1,5" points="874,-138 874,-206 1142,-206 1142,-138 874,-138"/>
</g>
<g id="clust39" class="cluster">
<title>cluster_SharedModule_declarations</title>
<polygon fill="none" stroke="#000000" points="1014,-146 1014,-198 1134,-198 1134,-146 1014,-146"/>
</g>
<g id="clust42" class="cluster">
<title>cluster_SharedModule_exports</title>
<polygon fill="none" stroke="#000000" points="882,-146 882,-198 1006,-198 1006,-146 882,-146"/>
</g>
<!-- AppComponent -->
<g id="node1" class="node">
<title>AppComponent</title>
<polygon fill="#ffffb3" stroke="#000000" points="129.9399,-122 24.0601,-122 24.0601,-86 129.9399,-86 129.9399,-122"/>
<text text-anchor="middle" x="77" y="-99.8" font-family="Times,serif" font-size="14.00" fill="#000000">AppComponent</text>
</g>
<!-- AppModule -->
<g id="node2" class="node">
<title>AppModule</title>
<polygon fill="#8dd3c7" stroke="#000000" points="513.6571,-190 510.6571,-194 489.6571,-194 486.6571,-190 430.3429,-190 430.3429,-154 513.6571,-154 513.6571,-190"/>
<text text-anchor="middle" x="472" y="-167.8" font-family="Times,serif" font-size="14.00" fill="#000000">AppModule</text>
</g>
<!-- AppComponent&#45;&gt;AppModule -->
<g id="edge1" class="edge">
<title>AppComponent&#45;&gt;AppModule</title>
<path fill="none" stroke="#000000" d="M77,-122.2479C77,-145.0179 77,-181 77,-181 77,-181 420.102,-181 420.102,-181"/>
<polygon fill="#000000" stroke="#000000" points="420.1021,-184.5001 430.102,-181 420.102,-177.5001 420.1021,-184.5001"/>
</g>
<!-- AppComponent  -->
<g id="node9" class="node">
<title>AppComponent </title>
<polygon fill="#80b1d3" stroke="#000000" points="526.439,-258 417.561,-258 417.561,-222 526.439,-222 526.439,-258"/>
<text text-anchor="middle" x="472" y="-235.8" font-family="Times,serif" font-size="14.00" fill="#000000">AppComponent </text>
</g>
<!-- AppModule&#45;&gt;AppComponent  -->
<g id="edge8" class="edge">
<title>AppModule&#45;&gt;AppComponent </title>
<path fill="none" stroke="#000000" stroke-dasharray="1,5" d="M472,-190.2228C472,-190.2228 472,-211.7269 472,-211.7269"/>
<polygon fill="#000000" stroke="#000000" points="468.5001,-211.7269 472,-221.7269 475.5001,-211.727 468.5001,-211.7269"/>
</g>
<!-- CoreModule -->
<g id="node3" class="node">
<title>CoreModule</title>
<polygon fill="#8dd3c7" stroke="#000000" points="733.2619,-122 730.2619,-126 709.2619,-126 706.2619,-122 646.7381,-122 646.7381,-86 733.2619,-86 733.2619,-122"/>
<text text-anchor="middle" x="690" y="-99.8" font-family="Times,serif" font-size="14.00" fill="#000000">CoreModule</text>
</g>
<!-- CoreModule&#45;&gt;AppModule -->
<g id="edge2" class="edge">
<title>CoreModule&#45;&gt;AppModule</title>
<path fill="none" stroke="#000000" d="M690,-122.1686C690,-143.498 690,-176 690,-176 690,-176 523.7747,-176 523.7747,-176"/>
<polygon fill="#000000" stroke="#000000" points="523.7747,-172.5001 513.7747,-176 523.7746,-179.5001 523.7747,-172.5001"/>
</g>
<!-- HomeModule -->
<g id="node4" class="node">
<title>HomeModule</title>
<polygon fill="#8dd3c7" stroke="#000000" points="628.7619,-122 625.7619,-126 604.7619,-126 601.7619,-122 535.2381,-122 535.2381,-86 628.7619,-86 628.7619,-122"/>
<text text-anchor="middle" x="582" y="-99.8" font-family="Times,serif" font-size="14.00" fill="#000000">HomeModule</text>
</g>
<!-- HomeModule&#45;&gt;AppModule -->
<g id="edge3" class="edge">
<title>HomeModule&#45;&gt;AppModule</title>
<path fill="none" stroke="#000000" d="M582,-122.1061C582,-141.3391 582,-169 582,-169 582,-169 523.9001,-169 523.9001,-169"/>
<polygon fill="#000000" stroke="#000000" points="523.9001,-165.5001 513.9001,-169 523.9,-172.5001 523.9001,-165.5001"/>
</g>
<!-- ItemsModule -->
<g id="node5" class="node">
<title>ItemsModule</title>
<polygon fill="#8dd3c7" stroke="#000000" points="517.1515,-122 514.1515,-126 493.1515,-126 490.1515,-122 426.8485,-122 426.8485,-86 517.1515,-86 517.1515,-122"/>
<text text-anchor="middle" x="472" y="-99.8" font-family="Times,serif" font-size="14.00" fill="#000000">ItemsModule</text>
</g>
<!-- ItemsModule&#45;&gt;AppModule -->
<g id="edge4" class="edge">
<title>ItemsModule&#45;&gt;AppModule</title>
<path fill="none" stroke="#000000" d="M472,-122.2228C472,-122.2228 472,-143.7269 472,-143.7269"/>
<polygon fill="#000000" stroke="#000000" points="468.5001,-143.7269 472,-153.7269 475.5001,-143.727 468.5001,-143.7269"/>
</g>
<!-- LoginModule -->
<g id="node6" class="node">
<title>LoginModule</title>
<polygon fill="#8dd3c7" stroke="#000000" points="408.493,-122 405.493,-126 384.493,-126 381.493,-122 315.507,-122 315.507,-86 408.493,-86 408.493,-122"/>
<text text-anchor="middle" x="362" y="-99.8" font-family="Times,serif" font-size="14.00" fill="#000000">LoginModule</text>
</g>
<!-- LoginModule&#45;&gt;AppModule -->
<g id="edge5" class="edge">
<title>LoginModule&#45;&gt;AppModule</title>
<path fill="none" stroke="#000000" d="M362,-122.0225C362,-139.3734 362,-163 362,-163 362,-163 420.0999,-163 420.0999,-163"/>
<polygon fill="#000000" stroke="#000000" points="420.1,-166.5001 430.0999,-163 420.0999,-159.5001 420.1,-166.5001"/>
</g>
<!-- PageNotFoundModule -->
<g id="node7" class="node">
<title>PageNotFoundModule</title>
<polygon fill="#8dd3c7" stroke="#000000" points="297.5421,-122 294.5421,-126 273.5421,-126 270.5421,-122 154.4579,-122 154.4579,-86 297.5421,-86 297.5421,-122"/>
<text text-anchor="middle" x="226" y="-99.8" font-family="Times,serif" font-size="14.00" fill="#000000">PageNotFoundModule</text>
</g>
<!-- PageNotFoundModule&#45;&gt;AppModule -->
<g id="edge6" class="edge">
<title>PageNotFoundModule&#45;&gt;AppModule</title>
<path fill="none" stroke="#000000" d="M226,-122.2228C226,-142.3652 226,-172 226,-172 226,-172 420.2695,-172 420.2695,-172"/>
<polygon fill="#000000" stroke="#000000" points="420.2695,-175.5001 430.2695,-172 420.2694,-168.5001 420.2695,-175.5001"/>
</g>
<!-- SharedModule -->
<g id="node8" class="node">
<title>SharedModule</title>
<polygon fill="#8dd3c7" stroke="#000000" points="850.4231,-122 847.4231,-126 826.4231,-126 823.4231,-122 751.5769,-122 751.5769,-86 850.4231,-86 850.4231,-122"/>
<text text-anchor="middle" x="801" y="-99.8" font-family="Times,serif" font-size="14.00" fill="#000000">SharedModule</text>
</g>
<!-- SharedModule&#45;&gt;AppModule -->
<g id="edge7" class="edge">
<title>SharedModule&#45;&gt;AppModule</title>
<path fill="none" stroke="#000000" d="M784.5963,-122.3228C784.5963,-145.6602 784.5963,-183 784.5963,-183 784.5963,-183 523.8338,-183 523.8338,-183"/>
<polygon fill="#000000" stroke="#000000" points="523.8338,-179.5001 513.8338,-183 523.8337,-186.5001 523.8338,-179.5001"/>
</g>
<!-- NavComponent  -->
<g id="node11" class="node">
<title>NavComponent </title>
<polygon fill="#fb8072" stroke="#000000" points="998.1537,-190 889.8463,-190 889.8463,-154 998.1537,-154 998.1537,-190"/>
<text text-anchor="middle" x="944" y="-167.8" font-family="Times,serif" font-size="14.00" fill="#000000">NavComponent </text>
</g>
<!-- SharedModule&#45;&gt;NavComponent  -->
<g id="edge10" class="edge">
<title>SharedModule&#45;&gt;NavComponent </title>
<path fill="none" stroke="#000000" stroke-dasharray="5,2" d="M817.4037,-122.0336C817.4037,-139.0597 817.4037,-162 817.4037,-162 817.4037,-162 879.5771,-162 879.5771,-162"/>
<polygon fill="#000000" stroke="#000000" points="879.5771,-165.5001 889.5771,-162 879.577,-158.5001 879.5771,-165.5001"/>
</g>
<!-- NavComponent -->
<g id="node10" class="node">
<title>NavComponent</title>
<polygon fill="#ffffb3" stroke="#000000" points="1126.1542,-190 1021.8458,-190 1021.8458,-154 1126.1542,-154 1126.1542,-190"/>
<text text-anchor="middle" x="1074" y="-167.8" font-family="Times,serif" font-size="14.00" fill="#000000">NavComponent</text>
</g>
<!-- NavComponent&#45;&gt;SharedModule -->
<g id="edge9" class="edge">
<title>NavComponent&#45;&gt;SharedModule</title>
<path fill="none" stroke="#000000" d="M1074,-153.7772C1074,-133.6348 1074,-104 1074,-104 1074,-104 860.4382,-104 860.4382,-104"/>
<polygon fill="#000000" stroke="#000000" points="860.4383,-100.5001 850.4382,-104 860.4382,-107.5001 860.4383,-100.5001"/>
</g>
</g>
</svg>
