<?xml version="1.0" encoding="UTF-8" standalone="no"?>
<!DOCTYPE svg PUBLIC "-//W3C//DTD SVG 1.1//EN"
 "http://www.w3.org/Graphics/SVG/1.1/DTD/svg11.dtd">
<!-- Generated by graphviz version 2.40.1 (20161225.0304)
 -->
<!-- Title: dependencies Pages: 1 -->
<svg width="2837pt" height="360pt"
 viewBox="0.00 0.00 2837.00 360.00" xmlns="http://www.w3.org/2000/svg" xmlns:xlink="http://www.w3.org/1999/xlink">
<g id="graph0" class="graph" transform="scale(1 1) rotate(0) translate(4 356)">
<title>dependencies</title>
<polygon fill="#ffffff" stroke="transparent" points="-4,4 -4,-356 2833,-356 2833,4 -4,4"/>
<text text-anchor="start" x="1393.5091" y="-42.4" font-family="sans-serif" font-weight="bold" font-size="14.00" fill="#000000">Legend</text>
<polygon fill="#ffffb3" stroke="transparent" points="1180.5,-10 1180.5,-30 1200.5,-30 1200.5,-10 1180.5,-10"/>
<text text-anchor="start" x="1204.129" y="-15.4" font-family="sans-serif" font-size="14.00" fill="#000000"> &#160;Declarations</text>
<polygon fill="#8dd3c7" stroke="transparent" points="1293.5,-10 1293.5,-30 1313.5,-30 1313.5,-10 1293.5,-10"/>
<text text-anchor="start" x="1317.2251" y="-15.4" font-family="sans-serif" font-size="14.00" fill="#000000"> &#160;Module</text>
<polygon fill="#80b1d3" stroke="transparent" points="1379.5,-10 1379.5,-30 1399.5,-30 1399.5,-10 1379.5,-10"/>
<text text-anchor="start" x="1403.2812" y="-15.4" font-family="sans-serif" font-size="14.00" fill="#000000"> &#160;Bootstrap</text>
<polygon fill="#fdb462" stroke="transparent" points="1476.5,-10 1476.5,-30 1496.5,-30 1496.5,-10 1476.5,-10"/>
<text text-anchor="start" x="1500.1732" y="-15.4" font-family="sans-serif" font-size="14.00" fill="#000000"> &#160;Providers</text>
<polygon fill="#fb8072" stroke="transparent" points="1572.5,-10 1572.5,-30 1592.5,-30 1592.5,-10 1572.5,-10"/>
<text text-anchor="start" x="1596.2258" y="-15.4" font-family="sans-serif" font-size="14.00" fill="#000000"> &#160;Exports</text>
<g id="clust1" class="cluster">
<title>cluster_AppModule</title>
<polygon fill="none" stroke="#000000" stroke-dasharray="1,5" points="1076,-146 1076,-344 1860,-344 1860,-146 1076,-146"/>
</g>
<g id="clust2" class="cluster">
<title>cluster_AppModule_declarations</title>
<polygon fill="none" stroke="#000000" points="1730,-154 1730,-206 1852,-206 1852,-154 1730,-154"/>
</g>
<g id="clust4" class="cluster">
<title>cluster_AppModule_imports</title>
<polygon fill="none" stroke="#000000" points="1084,-154 1084,-206 1722,-206 1722,-154 1084,-154"/>
</g>
<g id="clust6" class="cluster">
<title>cluster_AppModule_bootstrap</title>
<polygon fill="none" stroke="#000000" points="1395,-284 1395,-336 1519,-336 1519,-284 1395,-284"/>
</g>
<g id="clust20" class="cluster">
<title>cluster_HomeModule</title>
<polygon fill="none" stroke="#000000" stroke-dasharray="1,5" points="2511,-70 2511,-206 2821,-206 2821,-70 2511,-70"/>
</g>
<g id="clust21" class="cluster">
<title>cluster_HomeModule_declarations</title>
<polygon fill="none" stroke="#000000" points="2681,-78 2681,-130 2813,-130 2813,-78 2681,-78"/>
</g>
<g id="clust23" class="cluster">
<title>cluster_HomeModule_imports</title>
<polygon fill="none" stroke="#000000" points="2519,-78 2519,-130 2673,-130 2673,-78 2519,-78"/>
</g>
<g id="clust39" class="cluster">
<title>cluster_ItemsModule</title>
<polygon fill="none" stroke="#000000" stroke-dasharray="1,5" points="176,-146 176,-344 1068,-344 1068,-146 176,-146"/>
</g>
<g id="clust40" class="cluster">
<title>cluster_ItemsModule_declarations</title>
<polygon fill="none" stroke="#000000" points="344,-154 344,-206 1060,-206 1060,-154 344,-154"/>
</g>
<g id="clust46" class="cluster">
<title>cluster_ItemsModule_imports</title>
<polygon fill="none" stroke="#000000" points="184,-154 184,-206 336,-206 336,-154 184,-154"/>
</g>
<g id="clust47" class="cluster">
<title>cluster_ItemsModule_exports</title>
<polygon fill="none" stroke="#000000" points="574,-284 574,-336 854,-336 854,-284 574,-284"/>
</g>
<g id="clust56" class="cluster">
<title>cluster_LoginModule</title>
<polygon fill="none" stroke="#000000" stroke-dasharray="1,5" points="1777,-70 1777,-138 2085,-138 2085,-70 1777,-70"/>
</g>
<g id="clust57" class="cluster">
<title>cluster_LoginModule_declarations</title>
<polygon fill="none" stroke="#000000" points="1947,-78 1947,-130 2077,-130 2077,-78 1947,-78"/>
</g>
<g id="clust59" class="cluster">
<title>cluster_LoginModule_imports</title>
<polygon fill="none" stroke="#000000" points="1785,-78 1785,-130 1939,-130 1939,-78 1785,-78"/>
</g>
<g id="clust69" class="cluster">
<title>cluster_PageNotFoundModule</title>
<polygon fill="none" stroke="#000000" stroke-dasharray="1,5" points="2093,-70 2093,-138 2503,-138 2503,-70 2093,-70"/>
</g>
<g id="clust70" class="cluster">
<title>cluster_PageNotFoundModule_declarations</title>
<polygon fill="none" stroke="#000000" points="2313,-78 2313,-130 2495,-130 2495,-78 2313,-78"/>
</g>
<g id="clust72" class="cluster">
<title>cluster_PageNotFoundModule_imports</title>
<polygon fill="none" stroke="#000000" points="2101,-78 2101,-130 2305,-130 2305,-78 2101,-78"/>
</g>
<g id="clust82" class="cluster">
<title>cluster_SharedModule</title>
<polygon fill="none" stroke="#000000" stroke-dasharray="1,5" points="8,-70 8,-138 1769,-138 1769,-70 8,-70"/>
</g>
<g id="clust83" class="cluster">
<title>cluster_SharedModule_declarations</title>
<polygon fill="none" stroke="#000000" points="843,-78 843,-130 1761,-130 1761,-78 843,-78"/>
</g>
<g id="clust91" class="cluster">
<title>cluster_SharedModule_imports</title>
<polygon fill="none" stroke="#000000" points="729,-78 729,-130 835,-130 835,-78 729,-78"/>
</g>
<g id="clust92" class="cluster">
<title>cluster_SharedModule_exports</title>
<polygon fill="none" stroke="#000000" points="16,-78 16,-130 721,-130 721,-78 16,-78"/>
</g>
<!-- AppComponent -->
<g id="node1" class="node">
<title>AppComponent</title>
<polygon fill="#ffffb3" stroke="#000000" points="1843.9399,-198 1738.0601,-198 1738.0601,-162 1843.9399,-162 1843.9399,-198"/>
<text text-anchor="middle" x="1791" y="-175.8" font-family="Times,serif" font-size="14.00" fill="#000000">AppComponent</text>
</g>
<!-- AppModule -->
<g id="node2" class="node">
<title>AppModule</title>
<polygon fill="#8dd3c7" stroke="#000000" points="1498.6571,-263 1495.6571,-267 1474.6571,-267 1471.6571,-263 1415.3429,-263 1415.3429,-227 1498.6571,-227 1498.6571,-263"/>
<text text-anchor="middle" x="1457" y="-240.8" font-family="Times,serif" font-size="14.00" fill="#000000">AppModule</text>
</g>
<!-- AppComponent&#45;&gt;AppModule -->
<g id="edge1" class="edge">
<title>AppComponent&#45;&gt;AppModule</title>
<path fill="none" stroke="#000000" d="M1791,-198.2843C1791,-219.3211 1791,-251 1791,-251 1791,-251 1508.9631,-251 1508.9631,-251"/>
<polygon fill="#000000" stroke="#000000" points="1508.9632,-247.5001 1498.9631,-251 1508.9631,-254.5001 1508.9632,-247.5001"/>
</g>
<!-- AppComponent  -->
<g id="node8" class="node">
<title>AppComponent </title>
<polygon fill="#80b1d3" stroke="#000000" points="1511.439,-328 1402.561,-328 1402.561,-292 1511.439,-292 1511.439,-328"/>
<text text-anchor="middle" x="1457" y="-305.8" font-family="Times,serif" font-size="14.00" fill="#000000">AppComponent </text>
</g>
<!-- AppModule&#45;&gt;AppComponent  -->
<g id="edge7" class="edge">
<title>AppModule&#45;&gt;AppComponent </title>
<path fill="none" stroke="#000000" stroke-dasharray="1,5" d="M1457,-263.1061C1457,-263.1061 1457,-281.991 1457,-281.991"/>
<polygon fill="#000000" stroke="#000000" points="1453.5001,-281.9909 1457,-291.991 1460.5001,-281.991 1453.5001,-281.9909"/>
</g>
<!-- AppRoutingModule -->
<g id="node3" class="node">
<title>AppRoutingModule</title>
<polygon fill="#8dd3c7" stroke="#000000" points="1714.2744,-198 1711.2744,-202 1690.2744,-202 1687.2744,-198 1585.7256,-198 1585.7256,-162 1714.2744,-162 1714.2744,-198"/>
<text text-anchor="middle" x="1650" y="-175.8" font-family="Times,serif" font-size="14.00" fill="#000000">AppRoutingModule</text>
</g>
<!-- AppRoutingModule&#45;&gt;AppModule -->
<g id="edge2" class="edge">
<title>AppRoutingModule&#45;&gt;AppModule</title>
<path fill="none" stroke="#000000" d="M1650,-198.0225C1650,-215.3734 1650,-239 1650,-239 1650,-239 1508.8781,-239 1508.8781,-239"/>
<polygon fill="#000000" stroke="#000000" points="1508.8782,-235.5001 1498.8781,-239 1508.8781,-242.5001 1508.8782,-235.5001"/>
</g>
<!-- CoreModule -->
<g id="node4" class="node">
<title>CoreModule</title>
<polygon fill="#8dd3c7" stroke="#000000" points="1567.2619,-198 1564.2619,-202 1543.2619,-202 1540.2619,-198 1480.7381,-198 1480.7381,-162 1567.2619,-162 1567.2619,-198"/>
<text text-anchor="middle" x="1524" y="-175.8" font-family="Times,serif" font-size="14.00" fill="#000000">CoreModule</text>
</g>
<!-- CoreModule&#45;&gt;AppModule -->
<g id="edge3" class="edge">
<title>CoreModule&#45;&gt;AppModule</title>
<path fill="none" stroke="#000000" d="M1489.7237,-198.1061C1489.7237,-198.1061 1489.7237,-216.991 1489.7237,-216.991"/>
<polygon fill="#000000" stroke="#000000" points="1486.2238,-216.9909 1489.7237,-226.991 1493.2238,-216.991 1486.2238,-216.9909"/>
</g>
<!-- LoginModule -->
<g id="node5" class="node">
<title>LoginModule</title>
<polygon fill="#8dd3c7" stroke="#000000" points="1301.493,-198 1298.493,-202 1277.493,-202 1274.493,-198 1208.507,-198 1208.507,-162 1301.493,-162 1301.493,-198"/>
<text text-anchor="middle" x="1255" y="-175.8" font-family="Times,serif" font-size="14.00" fill="#000000">LoginModule</text>
</g>
<!-- LoginModule&#45;&gt;AppModule -->
<g id="edge4" class="edge">
<title>LoginModule&#45;&gt;AppModule</title>
<path fill="none" stroke="#000000" d="M1255,-198.2396C1255,-213.5706 1255,-233 1255,-233 1255,-233 1405.1455,-233 1405.1455,-233"/>
<polygon fill="#000000" stroke="#000000" points="1405.1455,-236.5001 1415.1455,-233 1405.1454,-229.5001 1405.1455,-236.5001"/>
</g>
<!-- PageNotFoundModule -->
<g id="node6" class="node">
<title>PageNotFoundModule</title>
<polygon fill="#8dd3c7" stroke="#000000" points="1462.5421,-198 1459.5421,-202 1438.5421,-202 1435.5421,-198 1319.4579,-198 1319.4579,-162 1462.5421,-162 1462.5421,-198"/>
<text text-anchor="middle" x="1391" y="-175.8" font-family="Times,serif" font-size="14.00" fill="#000000">PageNotFoundModule</text>
</g>
<!-- PageNotFoundModule&#45;&gt;AppModule -->
<g id="edge5" class="edge">
<title>PageNotFoundModule&#45;&gt;AppModule</title>
<path fill="none" stroke="#000000" d="M1438.9713,-198.1061C1438.9713,-198.1061 1438.9713,-216.991 1438.9713,-216.991"/>
<polygon fill="#000000" stroke="#000000" points="1435.4713,-216.9909 1438.9713,-226.991 1442.4713,-216.991 1435.4713,-216.9909"/>
</g>
<!-- SharedModule -->
<g id="node7" class="node">
<title>SharedModule</title>
<polygon fill="#8dd3c7" stroke="#000000" points="1190.4231,-198 1187.4231,-202 1166.4231,-202 1163.4231,-198 1091.5769,-198 1091.5769,-162 1190.4231,-162 1190.4231,-198"/>
<text text-anchor="middle" x="1141" y="-175.8" font-family="Times,serif" font-size="14.00" fill="#000000">SharedModule</text>
</g>
<!-- SharedModule&#45;&gt;AppModule -->
<g id="edge6" class="edge">
<title>SharedModule&#45;&gt;AppModule</title>
<path fill="none" stroke="#000000" d="M1157.4037,-198.0225C1157.4037,-215.3734 1157.4037,-239 1157.4037,-239 1157.4037,-239 1405.3424,-239 1405.3424,-239"/>
<polygon fill="#000000" stroke="#000000" points="1405.3425,-242.5001 1415.3424,-239 1405.3424,-235.5001 1405.3425,-242.5001"/>
</g>
<!-- ItemsModule -->
<g id="node17" class="node">
<title>ItemsModule</title>
<polygon fill="#8dd3c7" stroke="#000000" points="750.1515,-263 747.1515,-267 726.1515,-267 723.1515,-263 659.8485,-263 659.8485,-227 750.1515,-227 750.1515,-263"/>
<text text-anchor="middle" x="705" y="-240.8" font-family="Times,serif" font-size="14.00" fill="#000000">ItemsModule</text>
</g>
<!-- SharedModule&#45;&gt;ItemsModule -->
<g id="edge16" class="edge">
<title>SharedModule&#45;&gt;ItemsModule</title>
<path fill="none" stroke="#000000" d="M1124.5963,-198.2479C1124.5963,-221.0179 1124.5963,-257 1124.5963,-257 1124.5963,-257 760.3028,-257 760.3028,-257"/>
<polygon fill="#000000" stroke="#000000" points="760.3029,-253.5001 750.3028,-257 760.3028,-260.5001 760.3029,-253.5001"/>
</g>
<!-- FilterByStatePipe  -->
<g id="node33" class="node">
<title>FilterByStatePipe </title>
<polygon fill="#fb8072" stroke="#000000" points="712.547,-122 593.453,-122 593.453,-86 712.547,-86 712.547,-122"/>
<text text-anchor="middle" x="653" y="-99.8" font-family="Times,serif" font-size="14.00" fill="#000000">FilterByStatePipe </text>
</g>
<!-- SharedModule&#45;&gt;FilterByStatePipe  -->
<g id="edge31" class="edge">
<title>SharedModule&#45;&gt;FilterByStatePipe </title>
<path fill="none" stroke="#000000" stroke-dasharray="5,2" d="M1132.7982,-161.9672C1132.7982,-155.1474 1132.7982,-149 1132.7982,-149 1132.7982,-149 670.158,-149 670.158,-149 670.158,-149 670.158,-132.0439 670.158,-132.0439"/>
<polygon fill="#000000" stroke="#000000" points="673.658,-132.0439 670.158,-122.0439 666.658,-132.044 673.658,-132.0439"/>
</g>
<!-- FormComponent  -->
<g id="node34" class="node">
<title>FormComponent </title>
<polygon fill="#fb8072" stroke="#000000" points="575.6663,-122 460.3337,-122 460.3337,-86 575.6663,-86 575.6663,-122"/>
<text text-anchor="middle" x="518" y="-99.8" font-family="Times,serif" font-size="14.00" fill="#000000">FormComponent </text>
</g>
<!-- SharedModule&#45;&gt;FormComponent  -->
<g id="edge32" class="edge">
<title>SharedModule&#45;&gt;FormComponent </title>
<path fill="none" stroke="#000000" stroke-dasharray="5,2" d="M1124.5963,-161.793C1124.5963,-156.4451 1124.5963,-152 1124.5963,-152 1124.5963,-152 524.6604,-152 524.6604,-152 524.6604,-152 524.6604,-132.1467 524.6604,-132.1467"/>
<polygon fill="#000000" stroke="#000000" points="528.1605,-132.1467 524.6604,-122.1467 521.1605,-132.1468 528.1605,-132.1467"/>
</g>
<!-- FormReactiveComponent  -->
<g id="node35" class="node">
<title>FormReactiveComponent </title>
<polygon fill="#fb8072" stroke="#000000" points="442.1425,-122 277.8575,-122 277.8575,-86 442.1425,-86 442.1425,-122"/>
<text text-anchor="middle" x="360" y="-99.8" font-family="Times,serif" font-size="14.00" fill="#000000">FormReactiveComponent </text>
</g>
<!-- SharedModule&#45;&gt;FormReactiveComponent  -->
<g id="edge33" class="edge">
<title>SharedModule&#45;&gt;FormReactiveComponent </title>
<path fill="none" stroke="#000000" stroke-dasharray="5,2" d="M1116.3945,-161.9421C1116.3945,-157.5055 1116.3945,-154 1116.3945,-154 1116.3945,-154 397.2579,-154 397.2579,-154 397.2579,-154 397.2579,-132.0511 397.2579,-132.0511"/>
<polygon fill="#000000" stroke="#000000" points="400.758,-132.0511 397.2579,-122.0511 393.758,-132.0512 400.758,-132.0511"/>
</g>
<!-- ItemComponent  -->
<g id="node36" class="node">
<title>ItemComponent </title>
<polygon fill="#fb8072" stroke="#000000" points="260.4899,-122 149.5101,-122 149.5101,-86 260.4899,-86 260.4899,-122"/>
<text text-anchor="middle" x="205" y="-99.8" font-family="Times,serif" font-size="14.00" fill="#000000">ItemComponent </text>
</g>
<!-- SharedModule&#45;&gt;ItemComponent  -->
<g id="edge34" class="edge">
<title>SharedModule&#45;&gt;ItemComponent </title>
<path fill="none" stroke="#000000" stroke-dasharray="5,2" d="M1108.1926,-161.8777C1108.1926,-159.0271 1108.1926,-157 1108.1926,-157 1108.1926,-157 226.1801,-157 226.1801,-157 226.1801,-157 226.1801,-132.2396 226.1801,-132.2396"/>
<polygon fill="#000000" stroke="#000000" points="229.6801,-132.2396 226.1801,-122.2396 222.6801,-132.2396 229.6801,-132.2396"/>
</g>
<!-- NavComponent  -->
<g id="node37" class="node">
<title>NavComponent </title>
<polygon fill="#fb8072" stroke="#000000" points="132.1537,-122 23.8463,-122 23.8463,-86 132.1537,-86 132.1537,-122"/>
<text text-anchor="middle" x="78" y="-99.8" font-family="Times,serif" font-size="14.00" fill="#000000">NavComponent </text>
</g>
<!-- SharedModule&#45;&gt;NavComponent  -->
<g id="edge35" class="edge">
<title>SharedModule&#45;&gt;NavComponent </title>
<path fill="none" stroke="#000000" stroke-dasharray="5,2" d="M1099.9908,-161.8457C1099.9908,-160.7031 1099.9908,-160 1099.9908,-160 1099.9908,-160 78,-160 78,-160 78,-160 78,-132.027 78,-132.027"/>
<polygon fill="#000000" stroke="#000000" points="81.5001,-132.027 78,-122.027 74.5001,-132.027 81.5001,-132.027"/>
</g>
<!-- HomeComponent -->
<g id="node9" class="node">
<title>HomeComponent</title>
<polygon fill="#ffffb3" stroke="#000000" points="2804.5451,-122 2689.4549,-122 2689.4549,-86 2804.5451,-86 2804.5451,-122"/>
<text text-anchor="middle" x="2747" y="-99.8" font-family="Times,serif" font-size="14.00" fill="#000000">HomeComponent</text>
</g>
<!-- HomeModule -->
<g id="node10" class="node">
<title>HomeModule</title>
<polygon fill="#8dd3c7" stroke="#000000" points="2717.7619,-198 2714.7619,-202 2693.7619,-202 2690.7619,-198 2624.2381,-198 2624.2381,-162 2717.7619,-162 2717.7619,-198"/>
<text text-anchor="middle" x="2671" y="-175.8" font-family="Times,serif" font-size="14.00" fill="#000000">HomeModule</text>
</g>
<!-- HomeComponent&#45;&gt;HomeModule -->
<g id="edge8" class="edge">
<title>HomeComponent&#45;&gt;HomeModule</title>
<path fill="none" stroke="#000000" d="M2703.5544,-122.0109C2703.5544,-122.0109 2703.5544,-151.855 2703.5544,-151.855"/>
<polygon fill="#000000" stroke="#000000" points="2700.0544,-151.8549 2703.5544,-161.855 2707.0544,-151.855 2700.0544,-151.8549"/>
</g>
<!-- HomeRoutingModule -->
<g id="node11" class="node">
<title>HomeRoutingModule</title>
<polygon fill="#8dd3c7" stroke="#000000" points="2665.3795,-122 2662.3795,-126 2641.3795,-126 2638.3795,-122 2526.6205,-122 2526.6205,-86 2665.3795,-86 2665.3795,-122"/>
<text text-anchor="middle" x="2596" y="-99.8" font-family="Times,serif" font-size="14.00" fill="#000000">HomeRoutingModule</text>
</g>
<!-- HomeRoutingModule&#45;&gt;HomeModule -->
<g id="edge9" class="edge">
<title>HomeRoutingModule&#45;&gt;HomeModule</title>
<path fill="none" stroke="#000000" d="M2644.7795,-122.0109C2644.7795,-122.0109 2644.7795,-151.855 2644.7795,-151.855"/>
<polygon fill="#000000" stroke="#000000" points="2641.2795,-151.8549 2644.7795,-161.855 2648.2795,-151.855 2641.2795,-151.8549"/>
</g>
<!-- AbstractComponent -->
<g id="node12" class="node">
<title>AbstractComponent</title>
<polygon fill="#ffffb3" stroke="#000000" points="1052.2548,-198 923.7452,-198 923.7452,-162 1052.2548,-162 1052.2548,-198"/>
<text text-anchor="middle" x="988" y="-175.8" font-family="Times,serif" font-size="14.00" fill="#000000">AbstractComponent</text>
</g>
<!-- AbstractComponent&#45;&gt;ItemsModule -->
<g id="edge10" class="edge">
<title>AbstractComponent&#45;&gt;ItemsModule</title>
<path fill="none" stroke="#000000" d="M988,-198.2843C988,-219.3211 988,-251 988,-251 988,-251 760.1551,-251 760.1551,-251"/>
<polygon fill="#000000" stroke="#000000" points="760.1552,-247.5001 750.1551,-251 760.1551,-254.5001 760.1552,-247.5001"/>
</g>
<!-- AddComponent -->
<g id="node13" class="node">
<title>AddComponent</title>
<polygon fill="#ffffb3" stroke="#000000" points="905.9399,-198 800.0601,-198 800.0601,-162 905.9399,-162 905.9399,-198"/>
<text text-anchor="middle" x="853" y="-175.8" font-family="Times,serif" font-size="14.00" fill="#000000">AddComponent</text>
</g>
<!-- AddComponent&#45;&gt;ItemsModule -->
<g id="edge11" class="edge">
<title>AddComponent&#45;&gt;ItemsModule</title>
<path fill="none" stroke="#000000" d="M823.1464,-198.1061C823.1464,-217.3391 823.1464,-245 823.1464,-245 823.1464,-245 760.3406,-245 760.3406,-245"/>
<polygon fill="#000000" stroke="#000000" points="760.3406,-241.5001 750.3406,-245 760.3406,-248.5001 760.3406,-241.5001"/>
</g>
<!-- AddReactiveComponent -->
<g id="node14" class="node">
<title>AddReactiveComponent</title>
<polygon fill="#ffffb3" stroke="#000000" points="782.4158,-198 627.5842,-198 627.5842,-162 782.4158,-162 782.4158,-198"/>
<text text-anchor="middle" x="705" y="-175.8" font-family="Times,serif" font-size="14.00" fill="#000000">AddReactiveComponent</text>
</g>
<!-- AddReactiveComponent&#45;&gt;ItemsModule -->
<g id="edge12" class="edge">
<title>AddReactiveComponent&#45;&gt;ItemsModule</title>
<path fill="none" stroke="#000000" d="M705,-198.1061C705,-198.1061 705,-216.991 705,-216.991"/>
<polygon fill="#000000" stroke="#000000" points="701.5001,-216.9909 705,-226.991 708.5001,-216.991 701.5001,-216.9909"/>
</g>
<!-- DeliveredComponent -->
<g id="node15" class="node">
<title>DeliveredComponent</title>
<polygon fill="#ffffb3" stroke="#000000" points="610.0254,-198 473.9746,-198 473.9746,-162 610.0254,-162 610.0254,-198"/>
<text text-anchor="middle" x="542" y="-175.8" font-family="Times,serif" font-size="14.00" fill="#000000">DeliveredComponent</text>
</g>
<!-- DeliveredComponent&#45;&gt;ItemsModule -->
<g id="edge13" class="edge">
<title>DeliveredComponent&#45;&gt;ItemsModule</title>
<path fill="none" stroke="#000000" d="M595.9784,-198.027C595.9784,-214.3976 595.9784,-236 595.9784,-236 595.9784,-236 649.7122,-236 649.7122,-236"/>
<polygon fill="#000000" stroke="#000000" points="649.7122,-239.5001 659.7122,-236 649.7121,-232.5001 649.7122,-239.5001"/>
</g>
<!-- ListComponent -->
<g id="node16" class="node">
<title>ListComponent</title>
<polygon fill="#ffffb3" stroke="#000000" points="455.6109,-198 352.3891,-198 352.3891,-162 455.6109,-162 455.6109,-198"/>
<text text-anchor="middle" x="404" y="-175.8" font-family="Times,serif" font-size="14.00" fill="#000000">ListComponent</text>
</g>
<!-- ListComponent&#45;&gt;ItemsModule -->
<g id="edge14" class="edge">
<title>ListComponent&#45;&gt;ItemsModule</title>
<path fill="none" stroke="#000000" d="M404,-198.1061C404,-217.3391 404,-245 404,-245 404,-245 649.6114,-245 649.6114,-245"/>
<polygon fill="#000000" stroke="#000000" points="649.6114,-248.5001 659.6114,-245 649.6113,-241.5001 649.6114,-248.5001"/>
</g>
<!-- DeliveredComponent  -->
<g id="node19" class="node">
<title>DeliveredComponent </title>
<polygon fill="#fb8072" stroke="#000000" points="846.0246,-328 705.9754,-328 705.9754,-292 846.0246,-292 846.0246,-328"/>
<text text-anchor="middle" x="776" y="-305.8" font-family="Times,serif" font-size="14.00" fill="#000000">DeliveredComponent </text>
</g>
<!-- ItemsModule&#45;&gt;DeliveredComponent  -->
<g id="edge17" class="edge">
<title>ItemsModule&#45;&gt;DeliveredComponent </title>
<path fill="none" stroke="#000000" stroke-dasharray="5,2" d="M728.1565,-263.1061C728.1565,-263.1061 728.1565,-281.991 728.1565,-281.991"/>
<polygon fill="#000000" stroke="#000000" points="724.6566,-281.9909 728.1565,-291.991 731.6566,-281.991 724.6566,-281.9909"/>
</g>
<!-- ListComponent  -->
<g id="node20" class="node">
<title>ListComponent </title>
<polygon fill="#fb8072" stroke="#000000" points="688.1115,-328 581.8885,-328 581.8885,-292 688.1115,-292 688.1115,-328"/>
<text text-anchor="middle" x="635" y="-305.8" font-family="Times,serif" font-size="14.00" fill="#000000">ListComponent </text>
</g>
<!-- ItemsModule&#45;&gt;ListComponent  -->
<g id="edge18" class="edge">
<title>ItemsModule&#45;&gt;ListComponent </title>
<path fill="none" stroke="#000000" stroke-dasharray="5,2" d="M673.99,-263.1061C673.99,-263.1061 673.99,-281.991 673.99,-281.991"/>
<polygon fill="#000000" stroke="#000000" points="670.4901,-281.9909 673.99,-291.991 677.4901,-281.991 670.4901,-281.9909"/>
</g>
<!-- ItemsRoutingModule -->
<g id="node18" class="node">
<title>ItemsRoutingModule</title>
<polygon fill="#8dd3c7" stroke="#000000" points="327.7688,-198 324.7688,-202 303.7688,-202 300.7688,-198 192.2312,-198 192.2312,-162 327.7688,-162 327.7688,-198"/>
<text text-anchor="middle" x="260" y="-175.8" font-family="Times,serif" font-size="14.00" fill="#000000">ItemsRoutingModule</text>
</g>
<!-- ItemsRoutingModule&#45;&gt;ItemsModule -->
<g id="edge15" class="edge">
<title>ItemsRoutingModule&#45;&gt;ItemsModule</title>
<path fill="none" stroke="#000000" d="M260,-198.2921C260,-220.2057 260,-254 260,-254 260,-254 649.4685,-254 649.4685,-254"/>
<polygon fill="#000000" stroke="#000000" points="649.4685,-257.5001 659.4685,-254 649.4684,-250.5001 649.4685,-257.5001"/>
</g>
<!-- LoginComponent -->
<g id="node21" class="node">
<title>LoginComponent</title>
<polygon fill="#ffffb3" stroke="#000000" points="2069.2758,-122 1954.7242,-122 1954.7242,-86 2069.2758,-86 2069.2758,-122"/>
<text text-anchor="middle" x="2012" y="-99.8" font-family="Times,serif" font-size="14.00" fill="#000000">LoginComponent</text>
</g>
<!-- LoginComponent&#45;&gt;LoginModule -->
<g id="edge19" class="edge">
<title>LoginComponent&#45;&gt;LoginModule</title>
<path fill="none" stroke="#000000" d="M2012,-122.2434C2012,-129.4297 2012,-136 2012,-136 2012,-136 1271.8906,-136 1271.8906,-136 1271.8906,-136 1271.8906,-151.8495 1271.8906,-151.8495"/>
<polygon fill="#000000" stroke="#000000" points="1268.3907,-151.8494 1271.8906,-161.8495 1275.3907,-151.8495 1268.3907,-151.8494"/>
</g>
<!-- LoginRoutingModule -->
<g id="node22" class="node">
<title>LoginRoutingModule</title>
<polygon fill="#8dd3c7" stroke="#000000" points="1931.1108,-122 1928.1108,-126 1907.1108,-126 1904.1108,-122 1792.8892,-122 1792.8892,-86 1931.1108,-86 1931.1108,-122"/>
<text text-anchor="middle" x="1862" y="-99.8" font-family="Times,serif" font-size="14.00" fill="#000000">LoginRoutingModule</text>
</g>
<!-- LoginRoutingModule&#45;&gt;LoginModule -->
<g id="edge20" class="edge">
<title>LoginRoutingModule&#45;&gt;LoginModule</title>
<path fill="none" stroke="#000000" d="M1818.3321,-122.2015C1818.3321,-128.028 1818.3321,-133 1818.3321,-133 1818.3321,-133 1242.2847,-133 1242.2847,-133 1242.2847,-133 1242.2847,-151.963 1242.2847,-151.963"/>
<polygon fill="#000000" stroke="#000000" points="1238.7848,-151.963 1242.2847,-161.963 1245.7848,-151.963 1238.7848,-151.963"/>
</g>
<!-- PageNotFoundComponent -->
<g id="node23" class="node">
<title>PageNotFoundComponent</title>
<polygon fill="#ffffb3" stroke="#000000" points="2486.8243,-122 2321.1757,-122 2321.1757,-86 2486.8243,-86 2486.8243,-122"/>
<text text-anchor="middle" x="2404" y="-99.8" font-family="Times,serif" font-size="14.00" fill="#000000">PageNotFoundComponent</text>
</g>
<!-- PageNotFoundComponent&#45;&gt;PageNotFoundModule -->
<g id="edge21" class="edge">
<title>PageNotFoundComponent&#45;&gt;PageNotFoundModule</title>
<path fill="none" stroke="#000000" d="M2404,-122.0664C2404,-131.4587 2404,-141 2404,-141 2404,-141 1444.8697,-141 1444.8697,-141 1444.8697,-141 1444.8697,-151.8701 1444.8697,-151.8701"/>
<polygon fill="#000000" stroke="#000000" points="1441.3698,-151.8701 1444.8697,-161.8701 1448.3698,-151.8701 1441.3698,-151.8701"/>
</g>
<!-- PageNotFoundRoutingModule -->
<g id="node24" class="node">
<title>PageNotFoundRoutingModule</title>
<polygon fill="#8dd3c7" stroke="#000000" points="2297.1595,-122 2294.1595,-126 2273.1595,-126 2270.1595,-122 2108.8405,-122 2108.8405,-86 2297.1595,-86 2297.1595,-122"/>
<text text-anchor="middle" x="2203" y="-99.8" font-family="Times,serif" font-size="14.00" fill="#000000">PageNotFoundRoutingModule</text>
</g>
<!-- PageNotFoundRoutingModule&#45;&gt;PageNotFoundModule -->
<g id="edge22" class="edge">
<title>PageNotFoundRoutingModule&#45;&gt;PageNotFoundModule</title>
<path fill="none" stroke="#000000" d="M2203,-122.1944C2203,-130.2782 2203,-138 2203,-138 2203,-138 1426.9688,-138 1426.9688,-138 1426.9688,-138 1426.9688,-151.9445 1426.9688,-151.9445"/>
<polygon fill="#000000" stroke="#000000" points="1423.4689,-151.9444 1426.9688,-161.9445 1430.4689,-151.9445 1423.4689,-151.9444"/>
</g>
<!-- CapitalizePipe -->
<g id="node25" class="node">
<title>CapitalizePipe</title>
<polygon fill="#ffffb3" stroke="#000000" points="1752.6458,-122 1655.3542,-122 1655.3542,-86 1752.6458,-86 1752.6458,-122"/>
<text text-anchor="middle" x="1704" y="-99.8" font-family="Times,serif" font-size="14.00" fill="#000000">CapitalizePipe</text>
</g>
<!-- CapitalizePipe&#45;&gt;SharedModule -->
<g id="edge23" class="edge">
<title>CapitalizePipe&#45;&gt;SharedModule</title>
<path fill="none" stroke="#000000" d="M1684.7823,-122.0579C1684.7823,-126.4945 1684.7823,-130 1684.7823,-130 1684.7823,-130 1182.0093,-130 1182.0093,-130 1182.0093,-130 1182.0093,-151.9489 1182.0093,-151.9489"/>
<polygon fill="#000000" stroke="#000000" points="1178.5093,-151.9488 1182.0093,-161.9489 1185.5093,-151.9489 1178.5093,-151.9488"/>
</g>
<!-- FilterByStatePipe -->
<g id="node26" class="node">
<title>FilterByStatePipe</title>
<polygon fill="#ffffb3" stroke="#000000" points="1636.5479,-122 1521.4521,-122 1521.4521,-86 1636.5479,-86 1636.5479,-122"/>
<text text-anchor="middle" x="1579" y="-99.8" font-family="Times,serif" font-size="14.00" fill="#000000">FilterByStatePipe</text>
</g>
<!-- FilterByStatePipe&#45;&gt;SharedModule -->
<g id="edge24" class="edge">
<title>FilterByStatePipe&#45;&gt;SharedModule</title>
<path fill="none" stroke="#000000" d="M1544.3037,-122.1903C1544.3037,-125.5376 1544.3037,-128 1544.3037,-128 1544.3037,-128 1173.8074,-128 1173.8074,-128 1173.8074,-128 1173.8074,-151.8129 1173.8074,-151.8129"/>
<polygon fill="#000000" stroke="#000000" points="1170.3075,-151.8129 1173.8074,-161.8129 1177.3075,-151.813 1170.3075,-151.8129"/>
</g>
<!-- FormComponent -->
<g id="node27" class="node">
<title>FormComponent</title>
<polygon fill="#ffffb3" stroke="#000000" points="1502.6667,-122 1391.3333,-122 1391.3333,-86 1502.6667,-86 1502.6667,-122"/>
<text text-anchor="middle" x="1447" y="-99.8" font-family="Times,serif" font-size="14.00" fill="#000000">FormComponent</text>
</g>
<!-- FormComponent&#45;&gt;SharedModule -->
<g id="edge25" class="edge">
<title>FormComponent&#45;&gt;SharedModule</title>
<path fill="none" stroke="#000000" d="M1409.0679,-122.08C1409.0679,-123.8464 1409.0679,-125 1409.0679,-125 1409.0679,-125 1165.6056,-125 1165.6056,-125 1165.6056,-125 1165.6056,-151.9909 1165.6056,-151.9909"/>
<polygon fill="#000000" stroke="#000000" points="1162.1056,-151.9909 1165.6056,-161.9909 1169.1056,-151.991 1162.1056,-151.9909"/>
</g>
<!-- FormReactiveComponent -->
<g id="node28" class="node">
<title>FormReactiveComponent</title>
<polygon fill="#ffffb3" stroke="#000000" points="1373.1428,-122 1212.8572,-122 1212.8572,-86 1373.1428,-86 1373.1428,-122"/>
<text text-anchor="middle" x="1293" y="-99.8" font-family="Times,serif" font-size="14.00" fill="#000000">FormReactiveComponent</text>
</g>
<!-- FormReactiveComponent&#45;&gt;SharedModule -->
<g id="edge26" class="edge">
<title>FormReactiveComponent&#45;&gt;SharedModule</title>
<path fill="none" stroke="#000000" d="M1212.7188,-104C1205.8774,-104 1201.499,-104 1201.499,-104 1201.499,-104 1201.499,-180 1201.499,-180 1201.499,-180 1200.3893,-180 1200.3893,-180"/>
<polygon fill="#000000" stroke="#000000" points="1200.4025,-176.5001 1190.4025,-180 1200.4025,-183.5001 1200.4025,-176.5001"/>
</g>
<!-- ItemComponent -->
<g id="node29" class="node">
<title>ItemComponent</title>
<polygon fill="#ffffb3" stroke="#000000" points="1194.4888,-122 1087.5112,-122 1087.5112,-86 1194.4888,-86 1194.4888,-122"/>
<text text-anchor="middle" x="1141" y="-99.8" font-family="Times,serif" font-size="14.00" fill="#000000">ItemComponent</text>
</g>
<!-- ItemComponent&#45;&gt;SharedModule -->
<g id="edge27" class="edge">
<title>ItemComponent&#45;&gt;SharedModule</title>
<path fill="none" stroke="#000000" d="M1157.4037,-122.0109C1157.4037,-122.0109 1157.4037,-151.855 1157.4037,-151.855"/>
<polygon fill="#000000" stroke="#000000" points="1153.9038,-151.8549 1157.4037,-161.855 1160.9038,-151.855 1153.9038,-151.8549"/>
</g>
<!-- NavComponent -->
<g id="node30" class="node">
<title>NavComponent</title>
<polygon fill="#ffffb3" stroke="#000000" points="1069.1542,-122 964.8458,-122 964.8458,-86 1069.1542,-86 1069.1542,-122"/>
<text text-anchor="middle" x="1017" y="-99.8" font-family="Times,serif" font-size="14.00" fill="#000000">NavComponent</text>
</g>
<!-- NavComponent&#45;&gt;SharedModule -->
<g id="edge28" class="edge">
<title>NavComponent&#45;&gt;SharedModule</title>
<path fill="none" stroke="#000000" d="M1060.8521,-122.0109C1060.8521,-144.4852 1060.8521,-180 1060.8521,-180 1060.8521,-180 1081.6101,-180 1081.6101,-180"/>
<polygon fill="#000000" stroke="#000000" points="1081.6102,-183.5001 1091.6101,-180 1081.6101,-176.5001 1081.6102,-183.5001"/>
</g>
<!-- StateDirective -->
<g id="node31" class="node">
<title>StateDirective</title>
<polygon fill="#ffffb3" stroke="#000000" points="947.0758,-122 850.9242,-122 850.9242,-86 947.0758,-86 947.0758,-122"/>
<text text-anchor="middle" x="899" y="-99.8" font-family="Times,serif" font-size="14.00" fill="#000000">StateDirective</text>
</g>
<!-- StateDirective&#45;&gt;SharedModule -->
<g id="edge29" class="edge">
<title>StateDirective&#45;&gt;SharedModule</title>
<path fill="none" stroke="#000000" d="M935.3303,-122.1274C935.3303,-132.7109 935.3303,-144 935.3303,-144 935.3303,-144 1149.2019,-144 1149.2019,-144 1149.2019,-144 1149.2019,-151.5782 1149.2019,-151.5782"/>
<polygon fill="#000000" stroke="#000000" points="1145.7019,-151.5781 1149.2019,-161.5782 1152.7019,-151.5782 1145.7019,-151.5781"/>
</g>
<!-- IconsModule -->
<g id="node32" class="node">
<title>IconsModule</title>
<polygon fill="#8dd3c7" stroke="#000000" points="826.8697,-122 823.8697,-126 802.8697,-126 799.8697,-122 737.1303,-122 737.1303,-86 826.8697,-86 826.8697,-122"/>
<text text-anchor="middle" x="782" y="-99.8" font-family="Times,serif" font-size="14.00" fill="#000000">IconsModule</text>
</g>
<!-- IconsModule&#45;&gt;SharedModule -->
<g id="edge30" class="edge">
<title>IconsModule&#45;&gt;SharedModule</title>
<path fill="none" stroke="#000000" d="M813.6077,-122.0555C813.6077,-133.439 813.6077,-146 813.6077,-146 813.6077,-146 1141,-146 1141,-146 1141,-146 1141,-151.8056 1141,-151.8056"/>
<polygon fill="#000000" stroke="#000000" points="1137.5001,-151.8055 1141,-161.8056 1144.5001,-151.8056 1137.5001,-151.8055"/>
</g>
</g>
</svg>
