<?xml version="1.0" encoding="UTF-8" standalone="no"?>
<!DOCTYPE svg PUBLIC "-//W3C//DTD SVG 1.1//EN"
 "http://www.w3.org/Graphics/SVG/1.1/DTD/svg11.dtd">
<!-- Generated by graphviz version 2.40.1 (20161225.0304)
 -->
<!-- Title: dependencies Pages: 1 -->
<svg width="1032pt" height="284pt"
 viewBox="0.00 0.00 1032.00 284.00" xmlns="http://www.w3.org/2000/svg" xmlns:xlink="http://www.w3.org/1999/xlink">
<g id="graph0" class="graph" transform="scale(1 1) rotate(0) translate(4 280)">
<title>dependencies</title>
<polygon fill="#ffffff" stroke="transparent" points="-4,4 -4,-280 1028,-280 1028,4 -4,4"/>
<text text-anchor="start" x="491.0091" y="-42.4" font-family="sans-serif" font-weight="bold" font-size="14.00" fill="#000000">Legend</text>
<polygon fill="#ffffb3" stroke="transparent" points="278,-10 278,-30 298,-30 298,-10 278,-10"/>
<text text-anchor="start" x="301.629" y="-15.4" font-family="sans-serif" font-size="14.00" fill="#000000"> &#160;Declarations</text>
<polygon fill="#8dd3c7" stroke="transparent" points="391,-10 391,-30 411,-30 411,-10 391,-10"/>
<text text-anchor="start" x="414.7251" y="-15.4" font-family="sans-serif" font-size="14.00" fill="#000000"> &#160;Module</text>
<polygon fill="#80b1d3" stroke="transparent" points="477,-10 477,-30 497,-30 497,-10 477,-10"/>
<text text-anchor="start" x="500.7812" y="-15.4" font-family="sans-serif" font-size="14.00" fill="#000000"> &#160;Bootstrap</text>
<polygon fill="#fdb462" stroke="transparent" points="574,-10 574,-30 594,-30 594,-10 574,-10"/>
<text text-anchor="start" x="597.6732" y="-15.4" font-family="sans-serif" font-size="14.00" fill="#000000"> &#160;Providers</text>
<polygon fill="#fb8072" stroke="transparent" points="670,-10 670,-30 690,-30 690,-10 670,-10"/>
<text text-anchor="start" x="693.7258" y="-15.4" font-family="sans-serif" font-size="14.00" fill="#000000"> &#160;Exports</text>
<g id="clust1" class="cluster">
<title>cluster_ItemsModule</title>
<polygon fill="none" stroke="#000000" stroke-dasharray="1,5" points="8,-70 8,-268 1016,-268 1016,-70 8,-70"/>
</g>
<g id="clust2" class="cluster">
<title>cluster_ItemsModule_declarations</title>
<polygon fill="none" stroke="#000000" points="292,-78 292,-130 1008,-130 1008,-78 292,-78"/>
</g>
<g id="clust8" class="cluster">
<title>cluster_ItemsModule_imports</title>
<polygon fill="none" stroke="#000000" points="16,-78 16,-130 284,-130 284,-78 16,-78"/>
</g>
<g id="clust9" class="cluster">
<title>cluster_ItemsModule_exports</title>
<polygon fill="none" stroke="#000000" points="359,-208 359,-260 639,-260 639,-208 359,-208"/>
</g>
<!-- AbstractComponent -->
<g id="node1" class="node">
<title>AbstractComponent</title>
<polygon fill="#ffffb3" stroke="#000000" points="1000.2548,-122 871.7452,-122 871.7452,-86 1000.2548,-86 1000.2548,-122"/>
<text text-anchor="middle" x="936" y="-99.8" font-family="Times,serif" font-size="14.00" fill="#000000">AbstractComponent</text>
</g>
<!-- ItemsModule -->
<g id="node6" class="node">
<title>ItemsModule</title>
<polygon fill="#8dd3c7" stroke="#000000" points="535.1515,-187 532.1515,-191 511.1515,-191 508.1515,-187 444.8485,-187 444.8485,-151 535.1515,-151 535.1515,-187"/>
<text text-anchor="middle" x="490" y="-164.8" font-family="Times,serif" font-size="14.00" fill="#000000">ItemsModule</text>
</g>
<!-- AbstractComponent&#45;&gt;ItemsModule -->
<g id="edge1" class="edge">
<title>AbstractComponent&#45;&gt;ItemsModule</title>
<path fill="none" stroke="#000000" d="M936,-122.2921C936,-144.2057 936,-178 936,-178 936,-178 545.2193,-178 545.2193,-178"/>
<polygon fill="#000000" stroke="#000000" points="545.2193,-174.5001 535.2193,-178 545.2192,-181.5001 545.2193,-174.5001"/>
</g>
<!-- AddComponent -->
<g id="node2" class="node">
<title>AddComponent</title>
<polygon fill="#ffffb3" stroke="#000000" points="853.9399,-122 748.0601,-122 748.0601,-86 853.9399,-86 853.9399,-122"/>
<text text-anchor="middle" x="801" y="-99.8" font-family="Times,serif" font-size="14.00" fill="#000000">AddComponent</text>
</g>
<!-- AddComponent&#45;&gt;ItemsModule -->
<g id="edge2" class="edge">
<title>AddComponent&#45;&gt;ItemsModule</title>
<path fill="none" stroke="#000000" d="M801,-122.1061C801,-141.3391 801,-169 801,-169 801,-169 545.2221,-169 545.2221,-169"/>
<polygon fill="#000000" stroke="#000000" points="545.2221,-165.5001 535.2221,-169 545.222,-172.5001 545.2221,-165.5001"/>
</g>
<!-- AddReactiveComponent -->
<g id="node3" class="node">
<title>AddReactiveComponent</title>
<polygon fill="#ffffb3" stroke="#000000" points="730.4158,-122 575.5842,-122 575.5842,-86 730.4158,-86 730.4158,-122"/>
<text text-anchor="middle" x="653" y="-99.8" font-family="Times,serif" font-size="14.00" fill="#000000">AddReactiveComponent</text>
</g>
<!-- AddReactiveComponent&#45;&gt;ItemsModule -->
<g id="edge3" class="edge">
<title>AddReactiveComponent&#45;&gt;ItemsModule</title>
<path fill="none" stroke="#000000" d="M603.4024,-122.027C603.4024,-138.3976 603.4024,-160 603.4024,-160 603.4024,-160 545.4717,-160 545.4717,-160"/>
<polygon fill="#000000" stroke="#000000" points="545.4717,-156.5001 535.4717,-160 545.4716,-163.5001 545.4717,-156.5001"/>
</g>
<!-- DeliveredComponent -->
<g id="node4" class="node">
<title>DeliveredComponent</title>
<polygon fill="#ffffb3" stroke="#000000" points="558.0254,-122 421.9746,-122 421.9746,-86 558.0254,-86 558.0254,-122"/>
<text text-anchor="middle" x="490" y="-99.8" font-family="Times,serif" font-size="14.00" fill="#000000">DeliveredComponent</text>
</g>
<!-- DeliveredComponent&#45;&gt;ItemsModule -->
<g id="edge4" class="edge">
<title>DeliveredComponent&#45;&gt;ItemsModule</title>
<path fill="none" stroke="#000000" d="M490,-122.1061C490,-122.1061 490,-140.991 490,-140.991"/>
<polygon fill="#000000" stroke="#000000" points="486.5001,-140.9909 490,-150.991 493.5001,-140.991 486.5001,-140.9909"/>
</g>
<!-- ListComponent -->
<g id="node5" class="node">
<title>ListComponent</title>
<polygon fill="#ffffb3" stroke="#000000" points="403.6109,-122 300.3891,-122 300.3891,-86 403.6109,-86 403.6109,-122"/>
<text text-anchor="middle" x="352" y="-99.8" font-family="Times,serif" font-size="14.00" fill="#000000">ListComponent</text>
</g>
<!-- ListComponent&#45;&gt;ItemsModule -->
<g id="edge5" class="edge">
<title>ListComponent&#45;&gt;ItemsModule</title>
<path fill="none" stroke="#000000" d="M385.125,-122.027C385.125,-138.3976 385.125,-160 385.125,-160 385.125,-160 434.6103,-160 434.6103,-160"/>
<polygon fill="#000000" stroke="#000000" points="434.6103,-163.5001 444.6103,-160 434.6102,-156.5001 434.6103,-163.5001"/>
</g>
<!-- DeliveredComponent  -->
<g id="node9" class="node">
<title>DeliveredComponent </title>
<polygon fill="#fb8072" stroke="#000000" points="631.0246,-252 490.9754,-252 490.9754,-216 631.0246,-216 631.0246,-252"/>
<text text-anchor="middle" x="561" y="-229.8" font-family="Times,serif" font-size="14.00" fill="#000000">DeliveredComponent </text>
</g>
<!-- ItemsModule&#45;&gt;DeliveredComponent  -->
<g id="edge8" class="edge">
<title>ItemsModule&#45;&gt;DeliveredComponent </title>
<path fill="none" stroke="#000000" stroke-dasharray="5,2" d="M513.1566,-187.1061C513.1566,-187.1061 513.1566,-205.991 513.1566,-205.991"/>
<polygon fill="#000000" stroke="#000000" points="509.6566,-205.9909 513.1566,-215.991 516.6566,-205.991 509.6566,-205.9909"/>
</g>
<!-- ListComponent  -->
<g id="node10" class="node">
<title>ListComponent </title>
<polygon fill="#fb8072" stroke="#000000" points="473.1115,-252 366.8885,-252 366.8885,-216 473.1115,-216 473.1115,-252"/>
<text text-anchor="middle" x="420" y="-229.8" font-family="Times,serif" font-size="14.00" fill="#000000">ListComponent </text>
</g>
<!-- ItemsModule&#45;&gt;ListComponent  -->
<g id="edge9" class="edge">
<title>ItemsModule&#45;&gt;ListComponent </title>
<path fill="none" stroke="#000000" stroke-dasharray="5,2" d="M458.99,-187.1061C458.99,-187.1061 458.99,-205.991 458.99,-205.991"/>
<polygon fill="#000000" stroke="#000000" points="455.4901,-205.9909 458.99,-215.991 462.4901,-205.991 455.4901,-205.9909"/>
</g>
<!-- ItemsRoutingModule -->
<g id="node7" class="node">
<title>ItemsRoutingModule</title>
<polygon fill="#8dd3c7" stroke="#000000" points="275.7688,-122 272.7688,-126 251.7688,-126 248.7688,-122 140.2312,-122 140.2312,-86 275.7688,-86 275.7688,-122"/>
<text text-anchor="middle" x="208" y="-99.8" font-family="Times,serif" font-size="14.00" fill="#000000">ItemsRoutingModule</text>
</g>
<!-- ItemsRoutingModule&#45;&gt;ItemsModule -->
<g id="edge6" class="edge">
<title>ItemsRoutingModule&#45;&gt;ItemsModule</title>
<path fill="none" stroke="#000000" d="M208,-122.1061C208,-141.3391 208,-169 208,-169 208,-169 434.6918,-169 434.6918,-169"/>
<polygon fill="#000000" stroke="#000000" points="434.6919,-172.5001 444.6918,-169 434.6918,-165.5001 434.6919,-172.5001"/>
</g>
<!-- SharedModule -->
<g id="node8" class="node">
<title>SharedModule</title>
<polygon fill="#8dd3c7" stroke="#000000" points="122.4231,-122 119.4231,-126 98.4231,-126 95.4231,-122 23.5769,-122 23.5769,-86 122.4231,-86 122.4231,-122"/>
<text text-anchor="middle" x="73" y="-99.8" font-family="Times,serif" font-size="14.00" fill="#000000">SharedModule</text>
</g>
<!-- SharedModule&#45;&gt;ItemsModule -->
<g id="edge7" class="edge">
<title>SharedModule&#45;&gt;ItemsModule</title>
<path fill="none" stroke="#000000" d="M73,-122.2921C73,-144.2057 73,-178 73,-178 73,-178 434.5799,-178 434.5799,-178"/>
<polygon fill="#000000" stroke="#000000" points="434.5799,-181.5001 444.5799,-178 434.5798,-174.5001 434.5799,-181.5001"/>
</g>
</g>
</svg>
