<?xml version="1.0" encoding="UTF-8" standalone="no"?>
<!DOCTYPE svg PUBLIC "-//W3C//DTD SVG 1.1//EN"
 "http://www.w3.org/Graphics/SVG/1.1/DTD/svg11.dtd">
<!-- Generated by graphviz version 2.40.1 (20161225.0304)
 -->
<!-- Title: dependencies Pages: 1 -->
<svg width="605pt" height="284pt"
 viewBox="0.00 0.00 605.00 284.00" xmlns="http://www.w3.org/2000/svg" xmlns:xlink="http://www.w3.org/1999/xlink">
<g id="graph0" class="graph" transform="scale(1 1) rotate(0) translate(4 280)">
<title>dependencies</title>
<polygon fill="#ffffff" stroke="transparent" points="-4,4 -4,-280 601,-280 601,4 -4,4"/>
<text text-anchor="start" x="277.5091" y="-42.4" font-family="sans-serif" font-weight="bold" font-size="14.00" fill="#000000">Legend</text>
<polygon fill="#ffffb3" stroke="transparent" points="64.5,-10 64.5,-30 84.5,-30 84.5,-10 64.5,-10"/>
<text text-anchor="start" x="88.129" y="-15.4" font-family="sans-serif" font-size="14.00" fill="#000000"> &#160;Declarations</text>
<polygon fill="#8dd3c7" stroke="transparent" points="177.5,-10 177.5,-30 197.5,-30 197.5,-10 177.5,-10"/>
<text text-anchor="start" x="201.2251" y="-15.4" font-family="sans-serif" font-size="14.00" fill="#000000"> &#160;Module</text>
<polygon fill="#80b1d3" stroke="transparent" points="263.5,-10 263.5,-30 283.5,-30 283.5,-10 263.5,-10"/>
<text text-anchor="start" x="287.2812" y="-15.4" font-family="sans-serif" font-size="14.00" fill="#000000"> &#160;Bootstrap</text>
<polygon fill="#fdb462" stroke="transparent" points="360.5,-10 360.5,-30 380.5,-30 380.5,-10 360.5,-10"/>
<text text-anchor="start" x="384.1732" y="-15.4" font-family="sans-serif" font-size="14.00" fill="#000000"> &#160;Providers</text>
<polygon fill="#fb8072" stroke="transparent" points="456.5,-10 456.5,-30 476.5,-30 476.5,-10 456.5,-10"/>
<text text-anchor="start" x="480.2258" y="-15.4" font-family="sans-serif" font-size="14.00" fill="#000000"> &#160;Exports</text>
<g id="clust1" class="cluster">
<title>cluster_ItemsModule</title>
<polygon fill="none" stroke="#000000" stroke-dasharray="1,5" points="8,-70 8,-268 589,-268 589,-70 8,-70"/>
</g>
<g id="clust2" class="cluster">
<title>cluster_ItemsModule_declarations</title>
<polygon fill="none" stroke="#000000" points="138,-78 138,-130 581,-130 581,-78 138,-78"/>
</g>
<g id="clust6" class="cluster">
<title>cluster_ItemsModule_imports</title>
<polygon fill="none" stroke="#000000" points="16,-78 16,-130 130,-130 130,-78 16,-78"/>
</g>
<g id="clust7" class="cluster">
<title>cluster_ItemsModule_exports</title>
<polygon fill="none" stroke="#000000" points="132,-208 132,-260 434,-260 434,-208 132,-208"/>
</g>
<!-- AbstractComponent -->
<g id="node1" class="node">
<title>AbstractComponent</title>
<polygon fill="#ffffb3" stroke="#000000" points="573.2548,-122 444.7452,-122 444.7452,-86 573.2548,-86 573.2548,-122"/>
<text text-anchor="middle" x="509" y="-99.8" font-family="Times,serif" font-size="14.00" fill="#000000">AbstractComponent</text>
</g>
<!-- ItemsModule -->
<g id="node4" class="node">
<title>ItemsModule</title>
<polygon fill="#8dd3c7" stroke="#000000" points="314.1515,-187 311.1515,-191 290.1515,-191 287.1515,-187 223.8485,-187 223.8485,-151 314.1515,-151 314.1515,-187"/>
<text text-anchor="middle" x="269" y="-164.8" font-family="Times,serif" font-size="14.00" fill="#000000">ItemsModule</text>
</g>
<!-- AbstractComponent&#45;&gt;ItemsModule -->
<g id="edge1" class="edge">
<title>AbstractComponent&#45;&gt;ItemsModule</title>
<path fill="none" stroke="#000000" d="M509,-122.1061C509,-141.3391 509,-169 509,-169 509,-169 324.4243,-169 324.4243,-169"/>
<polygon fill="#000000" stroke="#000000" points="324.4244,-165.5001 314.4243,-169 324.4243,-172.5001 324.4244,-165.5001"/>
</g>
<!-- DeliveredListComponent -->
<g id="node2" class="node">
<title>DeliveredListComponent</title>
<polygon fill="#ffffb3" stroke="#000000" points="426.3033,-122 267.6967,-122 267.6967,-86 426.3033,-86 426.3033,-122"/>
<text text-anchor="middle" x="347" y="-99.8" font-family="Times,serif" font-size="14.00" fill="#000000">DeliveredListComponent</text>
</g>
<!-- DeliveredListComponent&#45;&gt;ItemsModule -->
<g id="edge2" class="edge">
<title>DeliveredListComponent&#45;&gt;ItemsModule</title>
<path fill="none" stroke="#000000" d="M291.087,-122.1061C291.087,-122.1061 291.087,-140.991 291.087,-140.991"/>
<polygon fill="#000000" stroke="#000000" points="287.587,-140.9909 291.087,-150.991 294.587,-140.991 287.587,-140.9909"/>
</g>
<!-- ListComponent -->
<g id="node3" class="node">
<title>ListComponent</title>
<polygon fill="#ffffb3" stroke="#000000" points="249.6109,-122 146.3891,-122 146.3891,-86 249.6109,-86 249.6109,-122"/>
<text text-anchor="middle" x="198" y="-99.8" font-family="Times,serif" font-size="14.00" fill="#000000">ListComponent</text>
</g>
<!-- ListComponent&#45;&gt;ItemsModule -->
<g id="edge3" class="edge">
<title>ListComponent&#45;&gt;ItemsModule</title>
<path fill="none" stroke="#000000" d="M236.615,-122.1061C236.615,-122.1061 236.615,-140.991 236.615,-140.991"/>
<polygon fill="#000000" stroke="#000000" points="233.1151,-140.9909 236.615,-150.991 240.1151,-140.991 233.1151,-140.9909"/>
</g>
<!-- DeliveredListComponent  -->
<g id="node6" class="node">
<title>DeliveredListComponent </title>
<polygon fill="#fb8072" stroke="#000000" points="425.8031,-252 264.1969,-252 264.1969,-216 425.8031,-216 425.8031,-252"/>
<text text-anchor="middle" x="345" y="-229.8" font-family="Times,serif" font-size="14.00" fill="#000000">DeliveredListComponent </text>
</g>
<!-- ItemsModule&#45;&gt;DeliveredListComponent  -->
<g id="edge5" class="edge">
<title>ItemsModule&#45;&gt;DeliveredListComponent </title>
<path fill="none" stroke="#000000" stroke-dasharray="5,2" d="M289.212,-187.1061C289.212,-187.1061 289.212,-205.991 289.212,-205.991"/>
<polygon fill="#000000" stroke="#000000" points="285.712,-205.9909 289.212,-215.991 292.712,-205.991 285.712,-205.9909"/>
</g>
<!-- ListComponent  -->
<g id="node7" class="node">
<title>ListComponent </title>
<polygon fill="#fb8072" stroke="#000000" points="246.1115,-252 139.8885,-252 139.8885,-216 246.1115,-216 246.1115,-252"/>
<text text-anchor="middle" x="193" y="-229.8" font-family="Times,serif" font-size="14.00" fill="#000000">ListComponent </text>
</g>
<!-- ItemsModule&#45;&gt;ListComponent  -->
<g id="edge6" class="edge">
<title>ItemsModule&#45;&gt;ListComponent </title>
<path fill="none" stroke="#000000" stroke-dasharray="5,2" d="M234.99,-187.1061C234.99,-187.1061 234.99,-205.991 234.99,-205.991"/>
<polygon fill="#000000" stroke="#000000" points="231.4901,-205.9909 234.99,-215.991 238.4901,-205.991 231.4901,-205.9909"/>
</g>
<!-- SharedModule -->
<g id="node5" class="node">
<title>SharedModule</title>
<polygon fill="#8dd3c7" stroke="#000000" points="122.4231,-122 119.4231,-126 98.4231,-126 95.4231,-122 23.5769,-122 23.5769,-86 122.4231,-86 122.4231,-122"/>
<text text-anchor="middle" x="73" y="-99.8" font-family="Times,serif" font-size="14.00" fill="#000000">SharedModule</text>
</g>
<!-- SharedModule&#45;&gt;ItemsModule -->
<g id="edge4" class="edge">
<title>SharedModule&#45;&gt;ItemsModule</title>
<path fill="none" stroke="#000000" d="M73,-122.1061C73,-141.3391 73,-169 73,-169 73,-169 213.541,-169 213.541,-169"/>
<polygon fill="#000000" stroke="#000000" points="213.5411,-172.5001 223.541,-169 213.541,-165.5001 213.5411,-172.5001"/>
</g>
</g>
</svg>
