<?xml version="1.0" encoding="UTF-8" standalone="no"?>
<!DOCTYPE svg PUBLIC "-//W3C//DTD SVG 1.1//EN"
 "http://www.w3.org/Graphics/SVG/1.1/DTD/svg11.dtd">
<!-- Generated by graphviz version 2.40.1 (20161225.0304)
 -->
<!-- Title: dependencies Pages: 1 -->
<svg width="1155pt" height="284pt"
 viewBox="0.00 0.00 1155.00 284.00" xmlns="http://www.w3.org/2000/svg" xmlns:xlink="http://www.w3.org/1999/xlink">
<g id="graph0" class="graph" transform="scale(1 1) rotate(0) translate(4 280)">
<title>dependencies</title>
<polygon fill="#ffffff" stroke="transparent" points="-4,4 -4,-280 1151,-280 1151,4 -4,4"/>
<text text-anchor="start" x="552.5091" y="-42.4" font-family="sans-serif" font-weight="bold" font-size="14.00" fill="#000000">Legend</text>
<polygon fill="#ffffb3" stroke="transparent" points="339.5,-10 339.5,-30 359.5,-30 359.5,-10 339.5,-10"/>
<text text-anchor="start" x="363.129" y="-15.4" font-family="sans-serif" font-size="14.00" fill="#000000"> &#160;Declarations</text>
<polygon fill="#8dd3c7" stroke="transparent" points="452.5,-10 452.5,-30 472.5,-30 472.5,-10 452.5,-10"/>
<text text-anchor="start" x="476.2251" y="-15.4" font-family="sans-serif" font-size="14.00" fill="#000000"> &#160;Module</text>
<polygon fill="#80b1d3" stroke="transparent" points="538.5,-10 538.5,-30 558.5,-30 558.5,-10 538.5,-10"/>
<text text-anchor="start" x="562.2812" y="-15.4" font-family="sans-serif" font-size="14.00" fill="#000000"> &#160;Bootstrap</text>
<polygon fill="#fdb462" stroke="transparent" points="635.5,-10 635.5,-30 655.5,-30 655.5,-10 635.5,-10"/>
<text text-anchor="start" x="659.1732" y="-15.4" font-family="sans-serif" font-size="14.00" fill="#000000"> &#160;Providers</text>
<polygon fill="#fb8072" stroke="transparent" points="731.5,-10 731.5,-30 751.5,-30 751.5,-10 731.5,-10"/>
<text text-anchor="start" x="755.2258" y="-15.4" font-family="sans-serif" font-size="14.00" fill="#000000"> &#160;Exports</text>
<g id="clust1" class="cluster">
<title>cluster_ItemsModule</title>
<polygon fill="none" stroke="#000000" stroke-dasharray="1,5" points="8,-70 8,-268 1139,-268 1139,-70 8,-70"/>
</g>
<g id="clust2" class="cluster">
<title>cluster_ItemsModule_declarations</title>
<polygon fill="none" stroke="#000000" points="292,-78 292,-130 1131,-130 1131,-78 292,-78"/>
</g>
<g id="clust9" class="cluster">
<title>cluster_ItemsModule_imports</title>
<polygon fill="none" stroke="#000000" points="16,-78 16,-130 284,-130 284,-78 16,-78"/>
</g>
<g id="clust10" class="cluster">
<title>cluster_ItemsModule_exports</title>
<polygon fill="none" stroke="#000000" points="412,-208 412,-260 692,-260 692,-208 412,-208"/>
</g>
<!-- AbstractComponent -->
<g id="node1" class="node">
<title>AbstractComponent</title>
<polygon fill="#ffffb3" stroke="#000000" points="1123.2548,-122 994.7452,-122 994.7452,-86 1123.2548,-86 1123.2548,-122"/>
<text text-anchor="middle" x="1059" y="-99.8" font-family="Times,serif" font-size="14.00" fill="#000000">AbstractComponent</text>
</g>
<!-- ItemsModule -->
<g id="node7" class="node">
<title>ItemsModule</title>
<polygon fill="#8dd3c7" stroke="#000000" points="588.1515,-187 585.1515,-191 564.1515,-191 561.1515,-187 497.8485,-187 497.8485,-151 588.1515,-151 588.1515,-187"/>
<text text-anchor="middle" x="543" y="-164.8" font-family="Times,serif" font-size="14.00" fill="#000000">ItemsModule</text>
</g>
<!-- AbstractComponent&#45;&gt;ItemsModule -->
<g id="edge1" class="edge">
<title>AbstractComponent&#45;&gt;ItemsModule</title>
<path fill="none" stroke="#000000" d="M1059,-122.2921C1059,-144.2057 1059,-178 1059,-178 1059,-178 598.3393,-178 598.3393,-178"/>
<polygon fill="#000000" stroke="#000000" points="598.3394,-174.5001 588.3393,-178 598.3393,-181.5001 598.3394,-174.5001"/>
</g>
<!-- AddComponent -->
<g id="node2" class="node">
<title>AddComponent</title>
<polygon fill="#ffffb3" stroke="#000000" points="976.9399,-122 871.0601,-122 871.0601,-86 976.9399,-86 976.9399,-122"/>
<text text-anchor="middle" x="924" y="-99.8" font-family="Times,serif" font-size="14.00" fill="#000000">AddComponent</text>
</g>
<!-- AddComponent&#45;&gt;ItemsModule -->
<g id="edge2" class="edge">
<title>AddComponent&#45;&gt;ItemsModule</title>
<path fill="none" stroke="#000000" d="M924,-122.1061C924,-141.3391 924,-169 924,-169 924,-169 598.2019,-169 598.2019,-169"/>
<polygon fill="#000000" stroke="#000000" points="598.2019,-165.5001 588.2019,-169 598.2018,-172.5001 598.2019,-165.5001"/>
</g>
<!-- AddReactiveComponent -->
<g id="node3" class="node">
<title>AddReactiveComponent</title>
<polygon fill="#ffffb3" stroke="#000000" points="853.4158,-122 698.5842,-122 698.5842,-86 853.4158,-86 853.4158,-122"/>
<text text-anchor="middle" x="776" y="-99.8" font-family="Times,serif" font-size="14.00" fill="#000000">AddReactiveComponent</text>
</g>
<!-- AddReactiveComponent&#45;&gt;ItemsModule -->
<g id="edge3" class="edge">
<title>AddReactiveComponent&#45;&gt;ItemsModule</title>
<path fill="none" stroke="#000000" d="M776,-122.027C776,-138.3976 776,-160 776,-160 776,-160 598.201,-160 598.201,-160"/>
<polygon fill="#000000" stroke="#000000" points="598.201,-156.5001 588.201,-160 598.201,-163.5001 598.201,-156.5001"/>
</g>
<!-- DeliveredComponent -->
<g id="node4" class="node">
<title>DeliveredComponent</title>
<polygon fill="#ffffb3" stroke="#000000" points="681.0254,-122 544.9746,-122 544.9746,-86 681.0254,-86 681.0254,-122"/>
<text text-anchor="middle" x="613" y="-99.8" font-family="Times,serif" font-size="14.00" fill="#000000">DeliveredComponent</text>
</g>
<!-- DeliveredComponent&#45;&gt;ItemsModule -->
<g id="edge4" class="edge">
<title>DeliveredComponent&#45;&gt;ItemsModule</title>
<path fill="none" stroke="#000000" d="M566.5315,-122.1061C566.5315,-122.1061 566.5315,-140.991 566.5315,-140.991"/>
<polygon fill="#000000" stroke="#000000" points="563.0316,-140.9909 566.5315,-150.991 570.0316,-140.991 563.0316,-140.9909"/>
</g>
<!-- EditComponent -->
<g id="node5" class="node">
<title>EditComponent</title>
<polygon fill="#ffffb3" stroke="#000000" points="526.1667,-122 421.8333,-122 421.8333,-86 526.1667,-86 526.1667,-122"/>
<text text-anchor="middle" x="474" y="-99.8" font-family="Times,serif" font-size="14.00" fill="#000000">EditComponent</text>
</g>
<!-- EditComponent&#45;&gt;ItemsModule -->
<g id="edge5" class="edge">
<title>EditComponent&#45;&gt;ItemsModule</title>
<path fill="none" stroke="#000000" d="M512.0039,-122.1061C512.0039,-122.1061 512.0039,-140.991 512.0039,-140.991"/>
<polygon fill="#000000" stroke="#000000" points="508.5039,-140.9909 512.0039,-150.991 515.5039,-140.991 508.5039,-140.9909"/>
</g>
<!-- ListComponent -->
<g id="node6" class="node">
<title>ListComponent</title>
<polygon fill="#ffffb3" stroke="#000000" points="403.6109,-122 300.3891,-122 300.3891,-86 403.6109,-86 403.6109,-122"/>
<text text-anchor="middle" x="352" y="-99.8" font-family="Times,serif" font-size="14.00" fill="#000000">ListComponent</text>
</g>
<!-- ListComponent&#45;&gt;ItemsModule -->
<g id="edge6" class="edge">
<title>ListComponent&#45;&gt;ItemsModule</title>
<path fill="none" stroke="#000000" d="M352,-122.027C352,-138.3976 352,-160 352,-160 352,-160 487.7357,-160 487.7357,-160"/>
<polygon fill="#000000" stroke="#000000" points="487.7357,-163.5001 497.7357,-160 487.7356,-156.5001 487.7357,-163.5001"/>
</g>
<!-- DeliveredComponent  -->
<g id="node10" class="node">
<title>DeliveredComponent </title>
<polygon fill="#fb8072" stroke="#000000" points="684.0246,-252 543.9754,-252 543.9754,-216 684.0246,-216 684.0246,-252"/>
<text text-anchor="middle" x="614" y="-229.8" font-family="Times,serif" font-size="14.00" fill="#000000">DeliveredComponent </text>
</g>
<!-- ItemsModule&#45;&gt;DeliveredComponent  -->
<g id="edge9" class="edge">
<title>ItemsModule&#45;&gt;DeliveredComponent </title>
<path fill="none" stroke="#000000" stroke-dasharray="5,2" d="M566.1565,-187.1061C566.1565,-187.1061 566.1565,-205.991 566.1565,-205.991"/>
<polygon fill="#000000" stroke="#000000" points="562.6566,-205.9909 566.1565,-215.991 569.6566,-205.991 562.6566,-205.9909"/>
</g>
<!-- ListComponent  -->
<g id="node11" class="node">
<title>ListComponent </title>
<polygon fill="#fb8072" stroke="#000000" points="526.1115,-252 419.8885,-252 419.8885,-216 526.1115,-216 526.1115,-252"/>
<text text-anchor="middle" x="473" y="-229.8" font-family="Times,serif" font-size="14.00" fill="#000000">ListComponent </text>
</g>
<!-- ItemsModule&#45;&gt;ListComponent  -->
<g id="edge10" class="edge">
<title>ItemsModule&#45;&gt;ListComponent </title>
<path fill="none" stroke="#000000" stroke-dasharray="5,2" d="M511.99,-187.1061C511.99,-187.1061 511.99,-205.991 511.99,-205.991"/>
<polygon fill="#000000" stroke="#000000" points="508.4901,-205.9909 511.99,-215.991 515.4901,-205.991 508.4901,-205.9909"/>
</g>
<!-- ItemsRoutingModule -->
<g id="node8" class="node">
<title>ItemsRoutingModule</title>
<polygon fill="#8dd3c7" stroke="#000000" points="275.7688,-122 272.7688,-126 251.7688,-126 248.7688,-122 140.2312,-122 140.2312,-86 275.7688,-86 275.7688,-122"/>
<text text-anchor="middle" x="208" y="-99.8" font-family="Times,serif" font-size="14.00" fill="#000000">ItemsRoutingModule</text>
</g>
<!-- ItemsRoutingModule&#45;&gt;ItemsModule -->
<g id="edge7" class="edge">
<title>ItemsRoutingModule&#45;&gt;ItemsModule</title>
<path fill="none" stroke="#000000" d="M208,-122.1061C208,-141.3391 208,-169 208,-169 208,-169 487.8204,-169 487.8204,-169"/>
<polygon fill="#000000" stroke="#000000" points="487.8204,-172.5001 497.8204,-169 487.8204,-165.5001 487.8204,-172.5001"/>
</g>
<!-- SharedModule -->
<g id="node9" class="node">
<title>SharedModule</title>
<polygon fill="#8dd3c7" stroke="#000000" points="122.4231,-122 119.4231,-126 98.4231,-126 95.4231,-122 23.5769,-122 23.5769,-86 122.4231,-86 122.4231,-122"/>
<text text-anchor="middle" x="73" y="-99.8" font-family="Times,serif" font-size="14.00" fill="#000000">SharedModule</text>
</g>
<!-- SharedModule&#45;&gt;ItemsModule -->
<g id="edge8" class="edge">
<title>SharedModule&#45;&gt;ItemsModule</title>
<path fill="none" stroke="#000000" d="M73,-122.2921C73,-144.2057 73,-178 73,-178 73,-178 487.5074,-178 487.5074,-178"/>
<polygon fill="#000000" stroke="#000000" points="487.5074,-181.5001 497.5074,-178 487.5073,-174.5001 487.5074,-181.5001"/>
</g>
</g>
</svg>
