<?xml version="1.0" encoding="UTF-8" standalone="no"?>
<!DOCTYPE svg PUBLIC "-//W3C//DTD SVG 1.1//EN"
 "http://www.w3.org/Graphics/SVG/1.1/DTD/svg11.dtd">
<!-- Generated by graphviz version 2.40.1 (20161225.0304)
 -->
<!-- Title: dependencies Pages: 1 -->
<svg width="583pt" height="284pt"
 viewBox="0.00 0.00 583.00 284.00" xmlns="http://www.w3.org/2000/svg" xmlns:xlink="http://www.w3.org/1999/xlink">
<g id="graph0" class="graph" transform="scale(1 1) rotate(0) translate(4 280)">
<title>dependencies</title>
<polygon fill="#ffffff" stroke="transparent" points="-4,4 -4,-280 579,-280 579,4 -4,4"/>
<text text-anchor="start" x="266.5091" y="-42.4" font-family="sans-serif" font-weight="bold" font-size="14.00" fill="#000000">Legend</text>
<polygon fill="#ffffb3" stroke="transparent" points="53.5,-10 53.5,-30 73.5,-30 73.5,-10 53.5,-10"/>
<text text-anchor="start" x="77.129" y="-15.4" font-family="sans-serif" font-size="14.00" fill="#000000"> &#160;Declarations</text>
<polygon fill="#8dd3c7" stroke="transparent" points="166.5,-10 166.5,-30 186.5,-30 186.5,-10 166.5,-10"/>
<text text-anchor="start" x="190.2251" y="-15.4" font-family="sans-serif" font-size="14.00" fill="#000000"> &#160;Module</text>
<polygon fill="#80b1d3" stroke="transparent" points="252.5,-10 252.5,-30 272.5,-30 272.5,-10 252.5,-10"/>
<text text-anchor="start" x="276.2812" y="-15.4" font-family="sans-serif" font-size="14.00" fill="#000000"> &#160;Bootstrap</text>
<polygon fill="#fdb462" stroke="transparent" points="349.5,-10 349.5,-30 369.5,-30 369.5,-10 349.5,-10"/>
<text text-anchor="start" x="373.1732" y="-15.4" font-family="sans-serif" font-size="14.00" fill="#000000"> &#160;Providers</text>
<polygon fill="#fb8072" stroke="transparent" points="445.5,-10 445.5,-30 465.5,-30 465.5,-10 445.5,-10"/>
<text text-anchor="start" x="469.2258" y="-15.4" font-family="sans-serif" font-size="14.00" fill="#000000"> &#160;Exports</text>
<g id="clust1" class="cluster">
<title>cluster_ItemsModule</title>
<polygon fill="none" stroke="#000000" stroke-dasharray="1,5" points="8,-70 8,-268 567,-268 567,-70 8,-70"/>
</g>
<g id="clust2" class="cluster">
<title>cluster_ItemsModule_declarations</title>
<polygon fill="none" stroke="#000000" points="138,-78 138,-130 559,-130 559,-78 138,-78"/>
</g>
<g id="clust6" class="cluster">
<title>cluster_ItemsModule_imports</title>
<polygon fill="none" stroke="#000000" points="16,-78 16,-130 130,-130 130,-78 16,-78"/>
</g>
<g id="clust7" class="cluster">
<title>cluster_ItemsModule_exports</title>
<polygon fill="none" stroke="#000000" points="136,-208 136,-260 416,-260 416,-208 136,-208"/>
</g>
<!-- AbstractComponent -->
<g id="node1" class="node">
<title>AbstractComponent</title>
<polygon fill="#ffffb3" stroke="#000000" points="551.2548,-122 422.7452,-122 422.7452,-86 551.2548,-86 551.2548,-122"/>
<text text-anchor="middle" x="487" y="-99.8" font-family="Times,serif" font-size="14.00" fill="#000000">AbstractComponent</text>
</g>
<!-- ItemsModule -->
<g id="node4" class="node">
<title>ItemsModule</title>
<polygon fill="#8dd3c7" stroke="#000000" points="312.1515,-187 309.1515,-191 288.1515,-191 285.1515,-187 221.8485,-187 221.8485,-151 312.1515,-151 312.1515,-187"/>
<text text-anchor="middle" x="267" y="-164.8" font-family="Times,serif" font-size="14.00" fill="#000000">ItemsModule</text>
</g>
<!-- AbstractComponent&#45;&gt;ItemsModule -->
<g id="edge1" class="edge">
<title>AbstractComponent&#45;&gt;ItemsModule</title>
<path fill="none" stroke="#000000" d="M487,-122.1061C487,-141.3391 487,-169 487,-169 487,-169 322.3174,-169 322.3174,-169"/>
<polygon fill="#000000" stroke="#000000" points="322.3174,-165.5001 312.3174,-169 322.3174,-172.5001 322.3174,-165.5001"/>
</g>
<!-- DeliveredComponent -->
<g id="node2" class="node">
<title>DeliveredComponent</title>
<polygon fill="#ffffb3" stroke="#000000" points="404.0254,-122 267.9746,-122 267.9746,-86 404.0254,-86 404.0254,-122"/>
<text text-anchor="middle" x="336" y="-99.8" font-family="Times,serif" font-size="14.00" fill="#000000">DeliveredComponent</text>
</g>
<!-- DeliveredComponent&#45;&gt;ItemsModule -->
<g id="edge2" class="edge">
<title>DeliveredComponent&#45;&gt;ItemsModule</title>
<path fill="none" stroke="#000000" d="M290.0316,-122.1061C290.0316,-122.1061 290.0316,-140.991 290.0316,-140.991"/>
<polygon fill="#000000" stroke="#000000" points="286.5316,-140.9909 290.0316,-150.991 293.5316,-140.991 286.5316,-140.9909"/>
</g>
<!-- ListComponent -->
<g id="node3" class="node">
<title>ListComponent</title>
<polygon fill="#ffffb3" stroke="#000000" points="249.6109,-122 146.3891,-122 146.3891,-86 249.6109,-86 249.6109,-122"/>
<text text-anchor="middle" x="198" y="-99.8" font-family="Times,serif" font-size="14.00" fill="#000000">ListComponent</text>
</g>
<!-- ListComponent&#45;&gt;ItemsModule -->
<g id="edge3" class="edge">
<title>ListComponent&#45;&gt;ItemsModule</title>
<path fill="none" stroke="#000000" d="M235.615,-122.1061C235.615,-122.1061 235.615,-140.991 235.615,-140.991"/>
<polygon fill="#000000" stroke="#000000" points="232.1151,-140.9909 235.615,-150.991 239.1151,-140.991 232.1151,-140.9909"/>
</g>
<!-- DeliveredComponent  -->
<g id="node6" class="node">
<title>DeliveredComponent </title>
<polygon fill="#fb8072" stroke="#000000" points="408.0246,-252 267.9754,-252 267.9754,-216 408.0246,-216 408.0246,-252"/>
<text text-anchor="middle" x="338" y="-229.8" font-family="Times,serif" font-size="14.00" fill="#000000">DeliveredComponent </text>
</g>
<!-- ItemsModule&#45;&gt;DeliveredComponent  -->
<g id="edge5" class="edge">
<title>ItemsModule&#45;&gt;DeliveredComponent </title>
<path fill="none" stroke="#000000" stroke-dasharray="5,2" d="M290.1566,-187.1061C290.1566,-187.1061 290.1566,-205.991 290.1566,-205.991"/>
<polygon fill="#000000" stroke="#000000" points="286.6566,-205.9909 290.1566,-215.991 293.6566,-205.991 286.6566,-205.9909"/>
</g>
<!-- ListComponent  -->
<g id="node7" class="node">
<title>ListComponent </title>
<polygon fill="#fb8072" stroke="#000000" points="250.1115,-252 143.8885,-252 143.8885,-216 250.1115,-216 250.1115,-252"/>
<text text-anchor="middle" x="197" y="-229.8" font-family="Times,serif" font-size="14.00" fill="#000000">ListComponent </text>
</g>
<!-- ItemsModule&#45;&gt;ListComponent  -->
<g id="edge6" class="edge">
<title>ItemsModule&#45;&gt;ListComponent </title>
<path fill="none" stroke="#000000" stroke-dasharray="5,2" d="M235.99,-187.1061C235.99,-187.1061 235.99,-205.991 235.99,-205.991"/>
<polygon fill="#000000" stroke="#000000" points="232.4901,-205.9909 235.99,-215.991 239.4901,-205.991 232.4901,-205.9909"/>
</g>
<!-- SharedModule -->
<g id="node5" class="node">
<title>SharedModule</title>
<polygon fill="#8dd3c7" stroke="#000000" points="122.4231,-122 119.4231,-126 98.4231,-126 95.4231,-122 23.5769,-122 23.5769,-86 122.4231,-86 122.4231,-122"/>
<text text-anchor="middle" x="73" y="-99.8" font-family="Times,serif" font-size="14.00" fill="#000000">SharedModule</text>
</g>
<!-- SharedModule&#45;&gt;ItemsModule -->
<g id="edge4" class="edge">
<title>SharedModule&#45;&gt;ItemsModule</title>
<path fill="none" stroke="#000000" d="M73,-122.1061C73,-141.3391 73,-169 73,-169 73,-169 211.5156,-169 211.5156,-169"/>
<polygon fill="#000000" stroke="#000000" points="211.5157,-172.5001 221.5156,-169 211.5156,-165.5001 211.5157,-172.5001"/>
</g>
</g>
</svg>
