<?xml version="1.0" encoding="UTF-8" standalone="no"?>
<!DOCTYPE svg PUBLIC "-//W3C//DTD SVG 1.1//EN"
 "http://www.w3.org/Graphics/SVG/1.1/DTD/svg11.dtd">
<!-- Generated by graphviz version 2.40.1 (20161225.0304)
 -->
<!-- Title: dependencies Pages: 1 -->
<svg width="1235pt" height="284pt"
 viewBox="0.00 0.00 1235.00 284.00" xmlns="http://www.w3.org/2000/svg" xmlns:xlink="http://www.w3.org/1999/xlink">
<g id="graph0" class="graph" transform="scale(1 1) rotate(0) translate(4 280)">
<title>dependencies</title>
<polygon fill="#ffffff" stroke="transparent" points="-4,4 -4,-280 1231,-280 1231,4 -4,4"/>
<text text-anchor="start" x="592.5091" y="-42.4" font-family="sans-serif" font-weight="bold" font-size="14.00" fill="#000000">Legend</text>
<polygon fill="#ffffb3" stroke="transparent" points="379.5,-10 379.5,-30 399.5,-30 399.5,-10 379.5,-10"/>
<text text-anchor="start" x="403.129" y="-15.4" font-family="sans-serif" font-size="14.00" fill="#000000"> &#160;Declarations</text>
<polygon fill="#8dd3c7" stroke="transparent" points="492.5,-10 492.5,-30 512.5,-30 512.5,-10 492.5,-10"/>
<text text-anchor="start" x="516.2251" y="-15.4" font-family="sans-serif" font-size="14.00" fill="#000000"> &#160;Module</text>
<polygon fill="#80b1d3" stroke="transparent" points="578.5,-10 578.5,-30 598.5,-30 598.5,-10 578.5,-10"/>
<text text-anchor="start" x="602.2812" y="-15.4" font-family="sans-serif" font-size="14.00" fill="#000000"> &#160;Bootstrap</text>
<polygon fill="#fdb462" stroke="transparent" points="675.5,-10 675.5,-30 695.5,-30 695.5,-10 675.5,-10"/>
<text text-anchor="start" x="699.1732" y="-15.4" font-family="sans-serif" font-size="14.00" fill="#000000"> &#160;Providers</text>
<polygon fill="#fb8072" stroke="transparent" points="771.5,-10 771.5,-30 791.5,-30 791.5,-10 771.5,-10"/>
<text text-anchor="start" x="795.2258" y="-15.4" font-family="sans-serif" font-size="14.00" fill="#000000"> &#160;Exports</text>
<g id="clust1" class="cluster">
<title>cluster_SharedModule</title>
<polygon fill="none" stroke="#000000" stroke-dasharray="1,5" points="8,-70 8,-268 1219,-268 1219,-70 8,-70"/>
</g>
<g id="clust2" class="cluster">
<title>cluster_SharedModule_declarations</title>
<polygon fill="none" stroke="#000000" points="130,-78 130,-130 1211,-130 1211,-78 130,-78"/>
</g>
<g id="clust11" class="cluster">
<title>cluster_SharedModule_imports</title>
<polygon fill="none" stroke="#000000" points="16,-78 16,-130 122,-130 122,-78 16,-78"/>
</g>
<g id="clust12" class="cluster">
<title>cluster_SharedModule_exports</title>
<polygon fill="none" stroke="#000000" points="149,-208 149,-260 1020,-260 1020,-208 149,-208"/>
</g>
<!-- CapitalizePipe -->
<g id="node1" class="node">
<title>CapitalizePipe</title>
<polygon fill="#ffffb3" stroke="#000000" points="1202.6458,-122 1105.3542,-122 1105.3542,-86 1202.6458,-86 1202.6458,-122"/>
<text text-anchor="middle" x="1154" y="-99.8" font-family="Times,serif" font-size="14.00" fill="#000000">CapitalizePipe</text>
</g>
<!-- SharedModule -->
<g id="node9" class="node">
<title>SharedModule</title>
<polygon fill="#8dd3c7" stroke="#000000" points="629.4231,-187 626.4231,-191 605.4231,-191 602.4231,-187 530.5769,-187 530.5769,-151 629.4231,-151 629.4231,-187"/>
<text text-anchor="middle" x="580" y="-164.8" font-family="Times,serif" font-size="14.00" fill="#000000">SharedModule</text>
</g>
<!-- CapitalizePipe&#45;&gt;SharedModule -->
<g id="edge1" class="edge">
<title>CapitalizePipe&#45;&gt;SharedModule</title>
<path fill="none" stroke="#000000" d="M1154,-122.2228C1154,-142.3652 1154,-172 1154,-172 1154,-172 639.4357,-172 639.4357,-172"/>
<polygon fill="#000000" stroke="#000000" points="639.4358,-168.5001 629.4357,-172 639.4357,-175.5001 639.4358,-168.5001"/>
</g>
<!-- FilterByStatePipe -->
<g id="node2" class="node">
<title>FilterByStatePipe</title>
<polygon fill="#ffffb3" stroke="#000000" points="1086.5479,-122 971.4521,-122 971.4521,-86 1086.5479,-86 1086.5479,-122"/>
<text text-anchor="middle" x="1029" y="-99.8" font-family="Times,serif" font-size="14.00" fill="#000000">FilterByStatePipe</text>
</g>
<!-- FilterByStatePipe&#45;&gt;SharedModule -->
<g id="edge2" class="edge">
<title>FilterByStatePipe&#45;&gt;SharedModule</title>
<path fill="none" stroke="#000000" d="M991.375,-122.2222C991.375,-140.8285 991.375,-167 991.375,-167 991.375,-167 639.2128,-167 639.2128,-167"/>
<polygon fill="#000000" stroke="#000000" points="639.2129,-163.5001 629.2128,-167 639.2128,-170.5001 639.2129,-163.5001"/>
</g>
<!-- FormComponent -->
<g id="node3" class="node">
<title>FormComponent</title>
<polygon fill="#ffffb3" stroke="#000000" points="952.6667,-122 841.3333,-122 841.3333,-86 952.6667,-86 952.6667,-122"/>
<text text-anchor="middle" x="897" y="-99.8" font-family="Times,serif" font-size="14.00" fill="#000000">FormComponent</text>
</g>
<!-- FormComponent&#45;&gt;SharedModule -->
<g id="edge3" class="edge">
<title>FormComponent&#45;&gt;SharedModule</title>
<path fill="none" stroke="#000000" d="M857.875,-122.0336C857.875,-139.0597 857.875,-162 857.875,-162 857.875,-162 639.3583,-162 639.3583,-162"/>
<polygon fill="#000000" stroke="#000000" points="639.3583,-158.5001 629.3583,-162 639.3583,-165.5001 639.3583,-158.5001"/>
</g>
<!-- FormLoginComponent -->
<g id="node4" class="node">
<title>FormLoginComponent</title>
<polygon fill="#ffffb3" stroke="#000000" points="823.6094,-122 678.3906,-122 678.3906,-86 823.6094,-86 823.6094,-122"/>
<text text-anchor="middle" x="751" y="-99.8" font-family="Times,serif" font-size="14.00" fill="#000000">FormLoginComponent</text>
</g>
<!-- FormLoginComponent&#45;&gt;SharedModule -->
<g id="edge4" class="edge">
<title>FormLoginComponent&#45;&gt;SharedModule</title>
<path fill="none" stroke="#000000" d="M709.875,-122.2396C709.875,-137.5706 709.875,-157 709.875,-157 709.875,-157 639.4707,-157 639.4707,-157"/>
<polygon fill="#000000" stroke="#000000" points="639.4707,-153.5001 629.4707,-157 639.4706,-160.5001 639.4707,-153.5001"/>
</g>
<!-- FormReactiveComponent -->
<g id="node5" class="node">
<title>FormReactiveComponent</title>
<polygon fill="#ffffb3" stroke="#000000" points="660.1428,-122 499.8572,-122 499.8572,-86 660.1428,-86 660.1428,-122"/>
<text text-anchor="middle" x="580" y="-99.8" font-family="Times,serif" font-size="14.00" fill="#000000">FormReactiveComponent</text>
</g>
<!-- FormReactiveComponent&#45;&gt;SharedModule -->
<g id="edge5" class="edge">
<title>FormReactiveComponent&#45;&gt;SharedModule</title>
<path fill="none" stroke="#000000" d="M580,-122.1061C580,-122.1061 580,-140.991 580,-140.991"/>
<polygon fill="#000000" stroke="#000000" points="576.5001,-140.9909 580,-150.991 583.5001,-140.991 576.5001,-140.9909"/>
</g>
<!-- ItemComponent -->
<g id="node6" class="node">
<title>ItemComponent</title>
<polygon fill="#ffffb3" stroke="#000000" points="481.4888,-122 374.5112,-122 374.5112,-86 481.4888,-86 481.4888,-122"/>
<text text-anchor="middle" x="428" y="-99.8" font-family="Times,serif" font-size="14.00" fill="#000000">ItemComponent</text>
</g>
<!-- ItemComponent&#45;&gt;SharedModule -->
<g id="edge6" class="edge">
<title>ItemComponent&#45;&gt;SharedModule</title>
<path fill="none" stroke="#000000" d="M446.2116,-122.2396C446.2116,-137.5706 446.2116,-157 446.2116,-157 446.2116,-157 520.5623,-157 520.5623,-157"/>
<polygon fill="#000000" stroke="#000000" points="520.5623,-160.5001 530.5623,-157 520.5622,-153.5001 520.5623,-160.5001"/>
</g>
<!-- NavComponent -->
<g id="node7" class="node">
<title>NavComponent</title>
<polygon fill="#ffffb3" stroke="#000000" points="356.1542,-122 251.8458,-122 251.8458,-86 356.1542,-86 356.1542,-122"/>
<text text-anchor="middle" x="304" y="-99.8" font-family="Times,serif" font-size="14.00" fill="#000000">NavComponent</text>
</g>
<!-- NavComponent&#45;&gt;SharedModule -->
<g id="edge7" class="edge">
<title>NavComponent&#45;&gt;SharedModule</title>
<path fill="none" stroke="#000000" d="M319.5412,-122.0336C319.5412,-139.0597 319.5412,-162 319.5412,-162 319.5412,-162 520.7035,-162 520.7035,-162"/>
<polygon fill="#000000" stroke="#000000" points="520.7035,-165.5001 530.7035,-162 520.7035,-158.5001 520.7035,-165.5001"/>
</g>
<!-- StateDirective -->
<g id="node8" class="node">
<title>StateDirective</title>
<polygon fill="#ffffb3" stroke="#000000" points="234.0758,-122 137.9242,-122 137.9242,-86 234.0758,-86 234.0758,-122"/>
<text text-anchor="middle" x="186" y="-99.8" font-family="Times,serif" font-size="14.00" fill="#000000">StateDirective</text>
</g>
<!-- StateDirective&#45;&gt;SharedModule -->
<g id="edge8" class="edge">
<title>StateDirective&#45;&gt;SharedModule</title>
<path fill="none" stroke="#000000" d="M195.4806,-122.2222C195.4806,-140.8285 195.4806,-167 195.4806,-167 195.4806,-167 520.518,-167 520.518,-167"/>
<polygon fill="#000000" stroke="#000000" points="520.518,-170.5001 530.518,-167 520.518,-163.5001 520.518,-170.5001"/>
</g>
<!-- FilterByStatePipe  -->
<g id="node11" class="node">
<title>FilterByStatePipe </title>
<polygon fill="#fb8072" stroke="#000000" points="1011.547,-252 892.453,-252 892.453,-216 1011.547,-216 1011.547,-252"/>
<text text-anchor="middle" x="952" y="-229.8" font-family="Times,serif" font-size="14.00" fill="#000000">FilterByStatePipe </text>
</g>
<!-- SharedModule&#45;&gt;FilterByStatePipe  -->
<g id="edge10" class="edge">
<title>SharedModule&#45;&gt;FilterByStatePipe </title>
<path fill="none" stroke="#000000" stroke-dasharray="5,2" d="M629.459,-177C724.3506,-177 922.6548,-177 922.6548,-177 922.6548,-177 922.6548,-205.9648 922.6548,-205.9648"/>
<polygon fill="#000000" stroke="#000000" points="919.1549,-205.9648 922.6548,-215.9648 926.1549,-205.9649 919.1549,-205.9648"/>
</g>
<!-- FormComponent  -->
<g id="node12" class="node">
<title>FormComponent </title>
<polygon fill="#fb8072" stroke="#000000" points="874.6663,-252 759.3337,-252 759.3337,-216 874.6663,-216 874.6663,-252"/>
<text text-anchor="middle" x="817" y="-229.8" font-family="Times,serif" font-size="14.00" fill="#000000">FormComponent </text>
</g>
<!-- SharedModule&#45;&gt;FormComponent  -->
<g id="edge11" class="edge">
<title>SharedModule&#45;&gt;FormComponent </title>
<path fill="none" stroke="#000000" stroke-dasharray="5,2" d="M629.3171,-182C691.8095,-182 791.4858,-182 791.4858,-182 791.4858,-182 791.4858,-205.8129 791.4858,-205.8129"/>
<polygon fill="#000000" stroke="#000000" points="787.9859,-205.8129 791.4858,-215.8129 794.9859,-205.813 787.9859,-205.8129"/>
</g>
<!-- FormLoginComponent  -->
<g id="node13" class="node">
<title>FormLoginComponent </title>
<polygon fill="#fb8072" stroke="#000000" points="741.1099,-252 592.8901,-252 592.8901,-216 741.1099,-216 741.1099,-252"/>
<text text-anchor="middle" x="667" y="-229.8" font-family="Times,serif" font-size="14.00" fill="#000000">FormLoginComponent </text>
</g>
<!-- SharedModule&#45;&gt;FormLoginComponent  -->
<g id="edge12" class="edge">
<title>SharedModule&#45;&gt;FormLoginComponent </title>
<path fill="none" stroke="#000000" stroke-dasharray="5,2" d="M610.9532,-187.1061C610.9532,-187.1061 610.9532,-205.991 610.9532,-205.991"/>
<polygon fill="#000000" stroke="#000000" points="607.4533,-205.9909 610.9532,-215.991 614.4533,-205.991 607.4533,-205.9909"/>
</g>
<!-- FormReactiveComponent  -->
<g id="node14" class="node">
<title>FormReactiveComponent </title>
<polygon fill="#fb8072" stroke="#000000" points="575.1425,-252 410.8575,-252 410.8575,-216 575.1425,-216 575.1425,-252"/>
<text text-anchor="middle" x="493" y="-229.8" font-family="Times,serif" font-size="14.00" fill="#000000">FormReactiveComponent </text>
</g>
<!-- SharedModule&#45;&gt;FormReactiveComponent  -->
<g id="edge13" class="edge">
<title>SharedModule&#45;&gt;FormReactiveComponent </title>
<path fill="none" stroke="#000000" stroke-dasharray="5,2" d="M552.93,-187.1061C552.93,-187.1061 552.93,-205.991 552.93,-205.991"/>
<polygon fill="#000000" stroke="#000000" points="549.4301,-205.9909 552.93,-215.991 556.4301,-205.991 549.4301,-205.9909"/>
</g>
<!-- ItemComponent  -->
<g id="node15" class="node">
<title>ItemComponent </title>
<polygon fill="#fb8072" stroke="#000000" points="393.4899,-252 282.5101,-252 282.5101,-216 393.4899,-216 393.4899,-252"/>
<text text-anchor="middle" x="338" y="-229.8" font-family="Times,serif" font-size="14.00" fill="#000000">ItemComponent </text>
</g>
<!-- SharedModule&#45;&gt;ItemComponent  -->
<g id="edge14" class="edge">
<title>SharedModule&#45;&gt;ItemComponent </title>
<path fill="none" stroke="#000000" stroke-dasharray="5,2" d="M530.7625,-182C472.6665,-182 383.875,-182 383.875,-182 383.875,-182 383.875,-205.8129 383.875,-205.8129"/>
<polygon fill="#000000" stroke="#000000" points="380.3751,-205.8129 383.875,-215.8129 387.3751,-205.813 380.3751,-205.8129"/>
</g>
<!-- NavComponent  -->
<g id="node16" class="node">
<title>NavComponent </title>
<polygon fill="#fb8072" stroke="#000000" points="265.1537,-252 156.8463,-252 156.8463,-216 265.1537,-216 265.1537,-252"/>
<text text-anchor="middle" x="211" y="-229.8" font-family="Times,serif" font-size="14.00" fill="#000000">NavComponent </text>
</g>
<!-- SharedModule&#45;&gt;NavComponent  -->
<g id="edge15" class="edge">
<title>SharedModule&#45;&gt;NavComponent </title>
<path fill="none" stroke="#000000" stroke-dasharray="5,2" d="M530.4509,-177C440.2326,-177 258.375,-177 258.375,-177 258.375,-177 258.375,-205.9648 258.375,-205.9648"/>
<polygon fill="#000000" stroke="#000000" points="254.8751,-205.9648 258.375,-215.9648 261.8751,-205.9649 254.8751,-205.9648"/>
</g>
<!-- IconsModule -->
<g id="node10" class="node">
<title>IconsModule</title>
<polygon fill="#8dd3c7" stroke="#000000" points="113.8697,-122 110.8697,-126 89.8697,-126 86.8697,-122 24.1303,-122 24.1303,-86 113.8697,-86 113.8697,-122"/>
<text text-anchor="middle" x="69" y="-99.8" font-family="Times,serif" font-size="14.00" fill="#000000">IconsModule</text>
</g>
<!-- IconsModule&#45;&gt;SharedModule -->
<g id="edge9" class="edge">
<title>IconsModule&#45;&gt;SharedModule</title>
<path fill="none" stroke="#000000" d="M69,-122.2228C69,-142.3652 69,-172 69,-172 69,-172 520.5389,-172 520.5389,-172"/>
<polygon fill="#000000" stroke="#000000" points="520.5389,-175.5001 530.5389,-172 520.5388,-168.5001 520.5389,-175.5001"/>
</g>
</g>
</svg>
