<?xml version="1.0" encoding="UTF-8" standalone="no"?>
<!DOCTYPE svg PUBLIC "-//W3C//DTD SVG 1.1//EN"
 "http://www.w3.org/Graphics/SVG/1.1/DTD/svg11.dtd">
<!-- Generated by graphviz version 2.40.1 (20161225.0304)
 -->
<!-- Title: dependencies Pages: 1 -->
<svg width="803pt" height="284pt"
 viewBox="0.00 0.00 803.00 284.00" xmlns="http://www.w3.org/2000/svg" xmlns:xlink="http://www.w3.org/1999/xlink">
<g id="graph0" class="graph" transform="scale(1 1) rotate(0) translate(4 280)">
<title>dependencies</title>
<polygon fill="#ffffff" stroke="transparent" points="-4,4 -4,-280 799,-280 799,4 -4,4"/>
<text text-anchor="start" x="376.5091" y="-42.4" font-family="sans-serif" font-weight="bold" font-size="14.00" fill="#000000">Legend</text>
<polygon fill="#ffffb3" stroke="transparent" points="163.5,-10 163.5,-30 183.5,-30 183.5,-10 163.5,-10"/>
<text text-anchor="start" x="187.129" y="-15.4" font-family="sans-serif" font-size="14.00" fill="#000000"> &#160;Declarations</text>
<polygon fill="#8dd3c7" stroke="transparent" points="276.5,-10 276.5,-30 296.5,-30 296.5,-10 276.5,-10"/>
<text text-anchor="start" x="300.2251" y="-15.4" font-family="sans-serif" font-size="14.00" fill="#000000"> &#160;Module</text>
<polygon fill="#80b1d3" stroke="transparent" points="362.5,-10 362.5,-30 382.5,-30 382.5,-10 362.5,-10"/>
<text text-anchor="start" x="386.2812" y="-15.4" font-family="sans-serif" font-size="14.00" fill="#000000"> &#160;Bootstrap</text>
<polygon fill="#fdb462" stroke="transparent" points="459.5,-10 459.5,-30 479.5,-30 479.5,-10 459.5,-10"/>
<text text-anchor="start" x="483.1732" y="-15.4" font-family="sans-serif" font-size="14.00" fill="#000000"> &#160;Providers</text>
<polygon fill="#fb8072" stroke="transparent" points="555.5,-10 555.5,-30 575.5,-30 575.5,-10 555.5,-10"/>
<text text-anchor="start" x="579.2258" y="-15.4" font-family="sans-serif" font-size="14.00" fill="#000000"> &#160;Exports</text>
<g id="clust1" class="cluster">
<title>cluster_SharedModule</title>
<polygon fill="none" stroke="#000000" stroke-dasharray="1,5" points="8,-70 8,-268 787,-268 787,-70 8,-70"/>
</g>
<g id="clust2" class="cluster">
<title>cluster_SharedModule_declarations</title>
<polygon fill="none" stroke="#000000" points="16,-78 16,-130 779,-130 779,-78 16,-78"/>
</g>
<g id="clust10" class="cluster">
<title>cluster_SharedModule_exports</title>
<polygon fill="none" stroke="#000000" points="189,-208 189,-260 579,-260 579,-208 189,-208"/>
</g>
<!-- CapitalizePipe -->
<g id="node1" class="node">
<title>CapitalizePipe</title>
<polygon fill="#ffffb3" stroke="#000000" points="770.6458,-122 673.3542,-122 673.3542,-86 770.6458,-86 770.6458,-122"/>
<text text-anchor="middle" x="722" y="-99.8" font-family="Times,serif" font-size="14.00" fill="#000000">CapitalizePipe</text>
</g>
<!-- SharedModule -->
<g id="node7" class="node">
<title>SharedModule</title>
<polygon fill="#8dd3c7" stroke="#000000" points="427.4231,-187 424.4231,-191 403.4231,-191 400.4231,-187 328.5769,-187 328.5769,-151 427.4231,-151 427.4231,-187"/>
<text text-anchor="middle" x="378" y="-164.8" font-family="Times,serif" font-size="14.00" fill="#000000">SharedModule</text>
</g>
<!-- CapitalizePipe&#45;&gt;SharedModule -->
<g id="edge1" class="edge">
<title>CapitalizePipe&#45;&gt;SharedModule</title>
<path fill="none" stroke="#000000" d="M722,-122.1061C722,-141.3391 722,-169 722,-169 722,-169 437.2868,-169 437.2868,-169"/>
<polygon fill="#000000" stroke="#000000" points="437.2868,-165.5001 427.2868,-169 437.2868,-172.5001 437.2868,-165.5001"/>
</g>
<!-- DeliveredComponent -->
<g id="node2" class="node">
<title>DeliveredComponent</title>
<polygon fill="#ffffb3" stroke="#000000" points="655.0254,-122 518.9746,-122 518.9746,-86 655.0254,-86 655.0254,-122"/>
<text text-anchor="middle" x="587" y="-99.8" font-family="Times,serif" font-size="14.00" fill="#000000">DeliveredComponent</text>
</g>
<!-- DeliveredComponent&#45;&gt;SharedModule -->
<g id="edge2" class="edge">
<title>DeliveredComponent&#45;&gt;SharedModule</title>
<path fill="none" stroke="#000000" d="M544.6306,-122.027C544.6306,-138.3976 544.6306,-160 544.6306,-160 544.6306,-160 437.5435,-160 437.5435,-160"/>
<polygon fill="#000000" stroke="#000000" points="437.5436,-156.5001 427.5435,-160 437.5435,-163.5001 437.5436,-156.5001"/>
</g>
<!-- FilterByStatePipe -->
<g id="node3" class="node">
<title>FilterByStatePipe</title>
<polygon fill="#ffffb3" stroke="#000000" points="500.5479,-122 385.4521,-122 385.4521,-86 500.5479,-86 500.5479,-122"/>
<text text-anchor="middle" x="443" y="-99.8" font-family="Times,serif" font-size="14.00" fill="#000000">FilterByStatePipe</text>
</g>
<!-- FilterByStatePipe&#45;&gt;SharedModule -->
<g id="edge3" class="edge">
<title>FilterByStatePipe&#45;&gt;SharedModule</title>
<path fill="none" stroke="#000000" d="M406.2188,-122.1061C406.2188,-122.1061 406.2188,-140.991 406.2188,-140.991"/>
<polygon fill="#000000" stroke="#000000" points="402.7189,-140.9909 406.2188,-150.991 409.7189,-140.991 402.7189,-140.9909"/>
</g>
<!-- ItemComponent -->
<g id="node4" class="node">
<title>ItemComponent</title>
<polygon fill="#ffffb3" stroke="#000000" points="367.4888,-122 260.5112,-122 260.5112,-86 367.4888,-86 367.4888,-122"/>
<text text-anchor="middle" x="314" y="-99.8" font-family="Times,serif" font-size="14.00" fill="#000000">ItemComponent</text>
</g>
<!-- ItemComponent&#45;&gt;SharedModule -->
<g id="edge4" class="edge">
<title>ItemComponent&#45;&gt;SharedModule</title>
<path fill="none" stroke="#000000" d="M348.1417,-122.1061C348.1417,-122.1061 348.1417,-140.991 348.1417,-140.991"/>
<polygon fill="#000000" stroke="#000000" points="344.6417,-140.9909 348.1417,-150.991 351.6417,-140.991 344.6417,-140.9909"/>
</g>
<!-- NavComponent -->
<g id="node5" class="node">
<title>NavComponent</title>
<polygon fill="#ffffb3" stroke="#000000" points="242.1542,-122 137.8458,-122 137.8458,-86 242.1542,-86 242.1542,-122"/>
<text text-anchor="middle" x="190" y="-99.8" font-family="Times,serif" font-size="14.00" fill="#000000">NavComponent</text>
</g>
<!-- NavComponent&#45;&gt;SharedModule -->
<g id="edge5" class="edge">
<title>NavComponent&#45;&gt;SharedModule</title>
<path fill="none" stroke="#000000" d="M219.625,-122.027C219.625,-138.3976 219.625,-160 219.625,-160 219.625,-160 318.7573,-160 318.7573,-160"/>
<polygon fill="#000000" stroke="#000000" points="318.7573,-163.5001 328.7573,-160 318.7573,-156.5001 318.7573,-163.5001"/>
</g>
<!-- StateDirective -->
<g id="node6" class="node">
<title>StateDirective</title>
<polygon fill="#ffffb3" stroke="#000000" points="120.0758,-122 23.9242,-122 23.9242,-86 120.0758,-86 120.0758,-122"/>
<text text-anchor="middle" x="72" y="-99.8" font-family="Times,serif" font-size="14.00" fill="#000000">StateDirective</text>
</g>
<!-- StateDirective&#45;&gt;SharedModule -->
<g id="edge6" class="edge">
<title>StateDirective&#45;&gt;SharedModule</title>
<path fill="none" stroke="#000000" d="M72,-122.1061C72,-141.3391 72,-169 72,-169 72,-169 318.4957,-169 318.4957,-169"/>
<polygon fill="#000000" stroke="#000000" points="318.4958,-172.5001 328.4957,-169 318.4957,-165.5001 318.4958,-172.5001"/>
</g>
<!-- FilterByStatePipe  -->
<g id="node8" class="node">
<title>FilterByStatePipe </title>
<polygon fill="#fb8072" stroke="#000000" points="570.547,-252 451.453,-252 451.453,-216 570.547,-216 570.547,-252"/>
<text text-anchor="middle" x="511" y="-229.8" font-family="Times,serif" font-size="14.00" fill="#000000">FilterByStatePipe </text>
</g>
<!-- SharedModule&#45;&gt;FilterByStatePipe  -->
<g id="edge7" class="edge">
<title>SharedModule&#45;&gt;FilterByStatePipe </title>
<path fill="none" stroke="#000000" stroke-dasharray="5,2" d="M427.35,-178C451.785,-178 476.125,-178 476.125,-178 476.125,-178 476.125,-205.973 476.125,-205.973"/>
<polygon fill="#000000" stroke="#000000" points="472.6251,-205.973 476.125,-215.973 479.6251,-205.973 472.6251,-205.973"/>
</g>
<!-- ItemComponent  -->
<g id="node9" class="node">
<title>ItemComponent </title>
<polygon fill="#fb8072" stroke="#000000" points="433.4899,-252 322.5101,-252 322.5101,-216 433.4899,-216 433.4899,-252"/>
<text text-anchor="middle" x="378" y="-229.8" font-family="Times,serif" font-size="14.00" fill="#000000">ItemComponent </text>
</g>
<!-- SharedModule&#45;&gt;ItemComponent  -->
<g id="edge8" class="edge">
<title>SharedModule&#45;&gt;ItemComponent </title>
<path fill="none" stroke="#000000" stroke-dasharray="5,2" d="M378,-187.1061C378,-187.1061 378,-205.991 378,-205.991"/>
<polygon fill="#000000" stroke="#000000" points="374.5001,-205.9909 378,-215.991 381.5001,-205.991 374.5001,-205.9909"/>
</g>
<!-- NavComponent  -->
<g id="node10" class="node">
<title>NavComponent </title>
<polygon fill="#fb8072" stroke="#000000" points="305.1537,-252 196.8463,-252 196.8463,-216 305.1537,-216 305.1537,-252"/>
<text text-anchor="middle" x="251" y="-229.8" font-family="Times,serif" font-size="14.00" fill="#000000">NavComponent </text>
</g>
<!-- SharedModule&#45;&gt;NavComponent  -->
<g id="edge9" class="edge">
<title>SharedModule&#45;&gt;NavComponent </title>
<path fill="none" stroke="#000000" stroke-dasharray="5,2" d="M328.7223,-178C305.4907,-178 282.7912,-178 282.7912,-178 282.7912,-178 282.7912,-205.973 282.7912,-205.973"/>
<polygon fill="#000000" stroke="#000000" points="279.2913,-205.973 282.7912,-215.973 286.2913,-205.973 279.2913,-205.973"/>
</g>
</g>
</svg>
