<?xml version="1.0" encoding="UTF-8" standalone="no"?>
<!DOCTYPE svg PUBLIC "-//W3C//DTD SVG 1.1//EN"
 "http://www.w3.org/Graphics/SVG/1.1/DTD/svg11.dtd">
<!-- Generated by graphviz version 2.40.1 (20161225.0304)
 -->
<!-- Title: dependencies Pages: 1 -->
<svg width="779pt" height="284pt"
 viewBox="0.00 0.00 779.00 284.00" xmlns="http://www.w3.org/2000/svg" xmlns:xlink="http://www.w3.org/1999/xlink">
<g id="graph0" class="graph" transform="scale(1 1) rotate(0) translate(4 280)">
<title>dependencies</title>
<polygon fill="#ffffff" stroke="transparent" points="-4,4 -4,-280 775,-280 775,4 -4,4"/>
<text text-anchor="start" x="364.5091" y="-42.4" font-family="sans-serif" font-weight="bold" font-size="14.00" fill="#000000">Legend</text>
<polygon fill="#ffffb3" stroke="transparent" points="151.5,-10 151.5,-30 171.5,-30 171.5,-10 151.5,-10"/>
<text text-anchor="start" x="175.129" y="-15.4" font-family="sans-serif" font-size="14.00" fill="#000000"> &#160;Declarations</text>
<polygon fill="#8dd3c7" stroke="transparent" points="264.5,-10 264.5,-30 284.5,-30 284.5,-10 264.5,-10"/>
<text text-anchor="start" x="288.2251" y="-15.4" font-family="sans-serif" font-size="14.00" fill="#000000"> &#160;Module</text>
<polygon fill="#80b1d3" stroke="transparent" points="350.5,-10 350.5,-30 370.5,-30 370.5,-10 350.5,-10"/>
<text text-anchor="start" x="374.2812" y="-15.4" font-family="sans-serif" font-size="14.00" fill="#000000"> &#160;Bootstrap</text>
<polygon fill="#fdb462" stroke="transparent" points="447.5,-10 447.5,-30 467.5,-30 467.5,-10 447.5,-10"/>
<text text-anchor="start" x="471.1732" y="-15.4" font-family="sans-serif" font-size="14.00" fill="#000000"> &#160;Providers</text>
<polygon fill="#fb8072" stroke="transparent" points="543.5,-10 543.5,-30 563.5,-30 563.5,-10 543.5,-10"/>
<text text-anchor="start" x="567.2258" y="-15.4" font-family="sans-serif" font-size="14.00" fill="#000000"> &#160;Exports</text>
<g id="clust1" class="cluster">
<title>cluster_SharedModule</title>
<polygon fill="none" stroke="#000000" stroke-dasharray="1,5" points="8,-70 8,-268 763,-268 763,-70 8,-70"/>
</g>
<g id="clust2" class="cluster">
<title>cluster_SharedModule_declarations</title>
<polygon fill="none" stroke="#000000" points="16,-78 16,-130 755,-130 755,-78 16,-78"/>
</g>
<g id="clust10" class="cluster">
<title>cluster_SharedModule_exports</title>
<polygon fill="none" stroke="#000000" points="113,-208 113,-260 636,-260 636,-208 113,-208"/>
</g>
<!-- CapitalizePipe -->
<g id="node1" class="node">
<title>CapitalizePipe</title>
<polygon fill="#ffffb3" stroke="#000000" points="746.6458,-122 649.3542,-122 649.3542,-86 746.6458,-86 746.6458,-122"/>
<text text-anchor="middle" x="698" y="-99.8" font-family="Times,serif" font-size="14.00" fill="#000000">CapitalizePipe</text>
</g>
<!-- SharedModule -->
<g id="node7" class="node">
<title>SharedModule</title>
<polygon fill="#8dd3c7" stroke="#000000" points="416.4231,-187 413.4231,-191 392.4231,-191 389.4231,-187 317.5769,-187 317.5769,-151 416.4231,-151 416.4231,-187"/>
<text text-anchor="middle" x="367" y="-164.8" font-family="Times,serif" font-size="14.00" fill="#000000">SharedModule</text>
</g>
<!-- CapitalizePipe&#45;&gt;SharedModule -->
<g id="edge1" class="edge">
<title>CapitalizePipe&#45;&gt;SharedModule</title>
<path fill="none" stroke="#000000" d="M698,-122.1061C698,-141.3391 698,-169 698,-169 698,-169 426.554,-169 426.554,-169"/>
<polygon fill="#000000" stroke="#000000" points="426.5541,-165.5001 416.554,-169 426.554,-172.5001 426.5541,-165.5001"/>
</g>
<!-- FilterByStatePipe -->
<g id="node2" class="node">
<title>FilterByStatePipe</title>
<polygon fill="#ffffb3" stroke="#000000" points="630.5479,-122 515.4521,-122 515.4521,-86 630.5479,-86 630.5479,-122"/>
<text text-anchor="middle" x="573" y="-99.8" font-family="Times,serif" font-size="14.00" fill="#000000">FilterByStatePipe</text>
</g>
<!-- FilterByStatePipe&#45;&gt;SharedModule -->
<g id="edge2" class="edge">
<title>FilterByStatePipe&#45;&gt;SharedModule</title>
<path fill="none" stroke="#000000" d="M552.6588,-122.027C552.6588,-138.3976 552.6588,-160 552.6588,-160 552.6588,-160 426.2657,-160 426.2657,-160"/>
<polygon fill="#000000" stroke="#000000" points="426.2658,-156.5001 416.2657,-160 426.2657,-163.5001 426.2658,-156.5001"/>
</g>
<!-- FormComponent -->
<g id="node3" class="node">
<title>FormComponent</title>
<polygon fill="#ffffb3" stroke="#000000" points="496.6667,-122 385.3333,-122 385.3333,-86 496.6667,-86 496.6667,-122"/>
<text text-anchor="middle" x="441" y="-99.8" font-family="Times,serif" font-size="14.00" fill="#000000">FormComponent</text>
</g>
<!-- FormComponent&#45;&gt;SharedModule -->
<g id="edge3" class="edge">
<title>FormComponent&#45;&gt;SharedModule</title>
<path fill="none" stroke="#000000" d="M400.689,-122.1061C400.689,-122.1061 400.689,-140.991 400.689,-140.991"/>
<polygon fill="#000000" stroke="#000000" points="397.1891,-140.9909 400.689,-150.991 404.1891,-140.991 397.1891,-140.9909"/>
</g>
<!-- ItemComponent -->
<g id="node4" class="node">
<title>ItemComponent</title>
<polygon fill="#ffffb3" stroke="#000000" points="367.4888,-122 260.5112,-122 260.5112,-86 367.4888,-86 367.4888,-122"/>
<text text-anchor="middle" x="314" y="-99.8" font-family="Times,serif" font-size="14.00" fill="#000000">ItemComponent</text>
</g>
<!-- ItemComponent&#45;&gt;SharedModule -->
<g id="edge4" class="edge">
<title>ItemComponent&#45;&gt;SharedModule</title>
<path fill="none" stroke="#000000" d="M342.6417,-122.1061C342.6417,-122.1061 342.6417,-140.991 342.6417,-140.991"/>
<polygon fill="#000000" stroke="#000000" points="339.1417,-140.9909 342.6417,-150.991 346.1417,-140.991 339.1417,-140.9909"/>
</g>
<!-- NavComponent -->
<g id="node5" class="node">
<title>NavComponent</title>
<polygon fill="#ffffb3" stroke="#000000" points="242.1542,-122 137.8458,-122 137.8458,-86 242.1542,-86 242.1542,-122"/>
<text text-anchor="middle" x="190" y="-99.8" font-family="Times,serif" font-size="14.00" fill="#000000">NavComponent</text>
</g>
<!-- NavComponent&#45;&gt;SharedModule -->
<g id="edge5" class="edge">
<title>NavComponent&#45;&gt;SharedModule</title>
<path fill="none" stroke="#000000" d="M235.7018,-122.027C235.7018,-138.3976 235.7018,-160 235.7018,-160 235.7018,-160 307.7358,-160 307.7358,-160"/>
<polygon fill="#000000" stroke="#000000" points="307.7359,-163.5001 317.7358,-160 307.7358,-156.5001 307.7359,-163.5001"/>
</g>
<!-- StateDirective -->
<g id="node6" class="node">
<title>StateDirective</title>
<polygon fill="#ffffb3" stroke="#000000" points="120.0758,-122 23.9242,-122 23.9242,-86 120.0758,-86 120.0758,-122"/>
<text text-anchor="middle" x="72" y="-99.8" font-family="Times,serif" font-size="14.00" fill="#000000">StateDirective</text>
</g>
<!-- StateDirective&#45;&gt;SharedModule -->
<g id="edge6" class="edge">
<title>StateDirective&#45;&gt;SharedModule</title>
<path fill="none" stroke="#000000" d="M72,-122.1061C72,-141.3391 72,-169 72,-169 72,-169 307.6236,-169 307.6236,-169"/>
<polygon fill="#000000" stroke="#000000" points="307.6237,-172.5001 317.6236,-169 307.6236,-165.5001 307.6237,-172.5001"/>
</g>
<!-- FilterByStatePipe  -->
<g id="node8" class="node">
<title>FilterByStatePipe </title>
<polygon fill="#fb8072" stroke="#000000" points="627.547,-252 508.453,-252 508.453,-216 627.547,-216 627.547,-252"/>
<text text-anchor="middle" x="568" y="-229.8" font-family="Times,serif" font-size="14.00" fill="#000000">FilterByStatePipe </text>
</g>
<!-- SharedModule&#45;&gt;FilterByStatePipe  -->
<g id="edge7" class="edge">
<title>SharedModule&#45;&gt;FilterByStatePipe </title>
<path fill="none" stroke="#000000" stroke-dasharray="5,2" d="M416.2345,-178C481.9325,-178 590.0912,-178 590.0912,-178 590.0912,-178 590.0912,-205.973 590.0912,-205.973"/>
<polygon fill="#000000" stroke="#000000" points="586.5913,-205.973 590.0912,-215.973 593.5913,-205.973 586.5913,-205.973"/>
</g>
<!-- FormComponent  -->
<g id="node9" class="node">
<title>FormComponent </title>
<polygon fill="#fb8072" stroke="#000000" points="490.6663,-252 375.3337,-252 375.3337,-216 490.6663,-216 490.6663,-252"/>
<text text-anchor="middle" x="433" y="-229.8" font-family="Times,serif" font-size="14.00" fill="#000000">FormComponent </text>
</g>
<!-- SharedModule&#45;&gt;FormComponent  -->
<g id="edge8" class="edge">
<title>SharedModule&#45;&gt;FormComponent </title>
<path fill="none" stroke="#000000" stroke-dasharray="5,2" d="M395.814,-187.1061C395.814,-187.1061 395.814,-205.991 395.814,-205.991"/>
<polygon fill="#000000" stroke="#000000" points="392.3141,-205.9909 395.814,-215.991 399.3141,-205.991 392.3141,-205.9909"/>
</g>
<!-- ItemComponent  -->
<g id="node10" class="node">
<title>ItemComponent </title>
<polygon fill="#fb8072" stroke="#000000" points="357.4899,-252 246.5101,-252 246.5101,-216 357.4899,-216 357.4899,-252"/>
<text text-anchor="middle" x="302" y="-229.8" font-family="Times,serif" font-size="14.00" fill="#000000">ItemComponent </text>
</g>
<!-- SharedModule&#45;&gt;ItemComponent  -->
<g id="edge9" class="edge">
<title>SharedModule&#45;&gt;ItemComponent </title>
<path fill="none" stroke="#000000" stroke-dasharray="5,2" d="M337.5167,-187.1061C337.5167,-187.1061 337.5167,-205.991 337.5167,-205.991"/>
<polygon fill="#000000" stroke="#000000" points="334.0167,-205.9909 337.5167,-215.991 341.0167,-205.991 334.0167,-205.9909"/>
</g>
<!-- NavComponent  -->
<g id="node11" class="node">
<title>NavComponent </title>
<polygon fill="#fb8072" stroke="#000000" points="229.1537,-252 120.8463,-252 120.8463,-216 229.1537,-216 229.1537,-252"/>
<text text-anchor="middle" x="175" y="-229.8" font-family="Times,serif" font-size="14.00" fill="#000000">NavComponent </text>
</g>
<!-- SharedModule&#45;&gt;NavComponent  -->
<g id="edge10" class="edge">
<title>SharedModule&#45;&gt;NavComponent </title>
<path fill="none" stroke="#000000" stroke-dasharray="5,2" d="M317.3084,-178C262.9271,-178 183.375,-178 183.375,-178 183.375,-178 183.375,-205.973 183.375,-205.973"/>
<polygon fill="#000000" stroke="#000000" points="179.8751,-205.973 183.375,-215.973 186.8751,-205.973 179.8751,-205.973"/>
</g>
</g>
</svg>
